G04 Layer: TopSilkLayer*
G04 EasyEDA v6.4.19.4, 2021-04-30T18:59:06+02:00*
G04 9f706370d961430f8c96474a389d8511,2e57c490b2cc43cca34809fe9e8c30bf,10*
G04 Gerber Generator version 0.2*
G04 Scale: 100 percent, Rotated: No, Reflected: No *
G04 Dimensions in millimeters *
G04 leading zeros omitted , absolute positions ,4 integer and 5 decimal *
%FSLAX45Y45*%
%MOMM*%

%ADD10C,0.2540*%
%ADD19C,0.6000*%
%ADD20C,0.2500*%
%ADD21C,0.1524*%

%LPD*%
D21*
X2235200Y7938515D02*
G01*
X2235200Y7860537D01*
X2240279Y7845044D01*
X2250693Y7834629D01*
X2266441Y7829550D01*
X2276856Y7829550D01*
X2292350Y7834629D01*
X2302763Y7845044D01*
X2307843Y7860537D01*
X2307843Y7938515D01*
X2342134Y7917687D02*
G01*
X2352547Y7923021D01*
X2368295Y7938515D01*
X2368295Y7829550D01*
X5499100Y7938515D02*
G01*
X5499100Y7860537D01*
X5504179Y7845044D01*
X5514593Y7834629D01*
X5530341Y7829550D01*
X5540756Y7829550D01*
X5556250Y7834629D01*
X5566663Y7845044D01*
X5571743Y7860537D01*
X5571743Y7938515D01*
X5616447Y7938515D02*
G01*
X5673597Y7938515D01*
X5642609Y7896860D01*
X5658104Y7896860D01*
X5668518Y7891779D01*
X5673597Y7886700D01*
X5678931Y7870952D01*
X5678931Y7860537D01*
X5673597Y7845044D01*
X5663184Y7834629D01*
X5647690Y7829550D01*
X5632195Y7829550D01*
X5616447Y7834629D01*
X5611368Y7839710D01*
X5606034Y7850123D01*
X8293100Y7938515D02*
G01*
X8293100Y7860537D01*
X8298179Y7845044D01*
X8308593Y7834629D01*
X8324341Y7829550D01*
X8334756Y7829550D01*
X8350250Y7834629D01*
X8360663Y7845044D01*
X8365743Y7860537D01*
X8365743Y7938515D01*
X8452104Y7938515D02*
G01*
X8400034Y7865871D01*
X8478011Y7865871D01*
X8452104Y7938515D02*
G01*
X8452104Y7829550D01*
X10147300Y6478015D02*
G01*
X10147300Y6400037D01*
X10152379Y6384544D01*
X10162793Y6374129D01*
X10178541Y6369050D01*
X10188956Y6369050D01*
X10204450Y6374129D01*
X10214863Y6384544D01*
X10219943Y6400037D01*
X10219943Y6478015D01*
X10316718Y6478015D02*
G01*
X10264647Y6478015D01*
X10259568Y6431279D01*
X10264647Y6436360D01*
X10280395Y6441694D01*
X10295890Y6441694D01*
X10311384Y6436360D01*
X10321797Y6426200D01*
X10327131Y6410452D01*
X10327131Y6400037D01*
X10321797Y6384544D01*
X10311384Y6374129D01*
X10295890Y6369050D01*
X10280395Y6369050D01*
X10264647Y6374129D01*
X10259568Y6379210D01*
X10254234Y6389623D01*
X11798300Y7938515D02*
G01*
X11798300Y7860537D01*
X11803379Y7845044D01*
X11813793Y7834629D01*
X11829541Y7829550D01*
X11839956Y7829550D01*
X11855450Y7834629D01*
X11865863Y7845044D01*
X11870943Y7860537D01*
X11870943Y7938515D01*
X11967718Y7923021D02*
G01*
X11962384Y7933436D01*
X11946890Y7938515D01*
X11936475Y7938515D01*
X11920981Y7933436D01*
X11910568Y7917687D01*
X11905234Y7891779D01*
X11905234Y7865871D01*
X11910568Y7845044D01*
X11920981Y7834629D01*
X11936475Y7829550D01*
X11941809Y7829550D01*
X11957304Y7834629D01*
X11967718Y7845044D01*
X11972797Y7860537D01*
X11972797Y7865871D01*
X11967718Y7881365D01*
X11957304Y7891779D01*
X11941809Y7896860D01*
X11936475Y7896860D01*
X11920981Y7891779D01*
X11910568Y7881365D01*
X11905234Y7865871D01*
X3683000Y6465315D02*
G01*
X3683000Y6387337D01*
X3688079Y6371844D01*
X3698493Y6361429D01*
X3714241Y6356350D01*
X3724656Y6356350D01*
X3740150Y6361429D01*
X3750563Y6371844D01*
X3755643Y6387337D01*
X3755643Y6465315D01*
X3795268Y6439407D02*
G01*
X3795268Y6444487D01*
X3800347Y6454902D01*
X3805681Y6460236D01*
X3816095Y6465315D01*
X3836670Y6465315D01*
X3847084Y6460236D01*
X3852418Y6454902D01*
X3857497Y6444487D01*
X3857497Y6434073D01*
X3852418Y6423660D01*
X3842004Y6408165D01*
X3789934Y6356350D01*
X3862831Y6356350D01*
X3583177Y9487408D02*
G01*
X3577843Y9497821D01*
X3567429Y9508236D01*
X3557270Y9513315D01*
X3536441Y9513315D01*
X3526027Y9508236D01*
X3515613Y9497821D01*
X3510279Y9487408D01*
X3505200Y9471660D01*
X3505200Y9445752D01*
X3510279Y9430258D01*
X3515613Y9419844D01*
X3526027Y9409429D01*
X3536441Y9404350D01*
X3557270Y9404350D01*
X3567429Y9409429D01*
X3577843Y9419844D01*
X3583177Y9430258D01*
X3617468Y9513315D02*
G01*
X3617468Y9404350D01*
X3617468Y9513315D02*
G01*
X3690111Y9404350D01*
X3690111Y9513315D02*
G01*
X3690111Y9404350D01*
X3724402Y9367774D02*
G01*
X3817874Y9367774D01*
X3852163Y9492487D02*
G01*
X3862577Y9497821D01*
X3878325Y9513315D01*
X3878325Y9404350D01*
X10771377Y9487408D02*
G01*
X10766043Y9497821D01*
X10755629Y9508236D01*
X10745470Y9513315D01*
X10724641Y9513315D01*
X10714227Y9508236D01*
X10703813Y9497821D01*
X10698479Y9487408D01*
X10693400Y9471660D01*
X10693400Y9445752D01*
X10698479Y9430258D01*
X10703813Y9419844D01*
X10714227Y9409429D01*
X10724641Y9404350D01*
X10745470Y9404350D01*
X10755629Y9409429D01*
X10766043Y9419844D01*
X10771377Y9430258D01*
X10805668Y9513315D02*
G01*
X10805668Y9404350D01*
X10805668Y9513315D02*
G01*
X10878311Y9404350D01*
X10878311Y9513315D02*
G01*
X10878311Y9404350D01*
X10912602Y9367774D02*
G01*
X11006074Y9367774D01*
X11045697Y9487408D02*
G01*
X11045697Y9492487D01*
X11050777Y9502902D01*
X11056111Y9508236D01*
X11066525Y9513315D01*
X11087100Y9513315D01*
X11097513Y9508236D01*
X11102847Y9502902D01*
X11107927Y9492487D01*
X11107927Y9482074D01*
X11102847Y9471660D01*
X11092434Y9456165D01*
X11040363Y9404350D01*
X11113261Y9404350D01*
X1498600Y5065318D02*
G01*
X1498600Y4956352D01*
X1498600Y4956352D02*
G01*
X1560829Y4956352D01*
X1595120Y5065318D02*
G01*
X1595120Y4956352D01*
X1595120Y5065318D02*
G01*
X1662684Y5065318D01*
X1595120Y5013502D02*
G01*
X1636776Y5013502D01*
X1595120Y4956352D02*
G01*
X1662684Y4956352D01*
X1696973Y5065318D02*
G01*
X1696973Y4956352D01*
X1696973Y5065318D02*
G01*
X1733550Y5065318D01*
X1749044Y5060238D01*
X1759457Y5049824D01*
X1764537Y5039410D01*
X1769871Y5023662D01*
X1769871Y4997754D01*
X1764537Y4982260D01*
X1759457Y4971846D01*
X1749044Y4961432D01*
X1733550Y4956352D01*
X1696973Y4956352D01*
X1804162Y5044490D02*
G01*
X1814576Y5049824D01*
X1830070Y5065318D01*
X1830070Y4956352D01*
X2197100Y5065318D02*
G01*
X2197100Y4956352D01*
X2197100Y4956352D02*
G01*
X2259329Y4956352D01*
X2293620Y5065318D02*
G01*
X2293620Y4956352D01*
X2293620Y5065318D02*
G01*
X2361184Y5065318D01*
X2293620Y5013502D02*
G01*
X2335275Y5013502D01*
X2293620Y4956352D02*
G01*
X2361184Y4956352D01*
X2395474Y5065318D02*
G01*
X2395474Y4956352D01*
X2395474Y5065318D02*
G01*
X2432050Y5065318D01*
X2447543Y5060238D01*
X2457958Y5049824D01*
X2463038Y5039410D01*
X2468372Y5023662D01*
X2468372Y4997754D01*
X2463038Y4982260D01*
X2457958Y4971846D01*
X2447543Y4961432D01*
X2432050Y4956352D01*
X2395474Y4956352D01*
X2507741Y5039410D02*
G01*
X2507741Y5044490D01*
X2513075Y5054904D01*
X2518156Y5060238D01*
X2528570Y5065318D01*
X2549397Y5065318D01*
X2559811Y5060238D01*
X2564891Y5054904D01*
X2570225Y5044490D01*
X2570225Y5034076D01*
X2564891Y5023662D01*
X2554477Y5008168D01*
X2502661Y4956352D01*
X2575306Y4956352D01*
X2895600Y5065318D02*
G01*
X2895600Y4956352D01*
X2895600Y4956352D02*
G01*
X2957829Y4956352D01*
X2992120Y5065318D02*
G01*
X2992120Y4956352D01*
X2992120Y5065318D02*
G01*
X3059684Y5065318D01*
X2992120Y5013502D02*
G01*
X3033775Y5013502D01*
X2992120Y4956352D02*
G01*
X3059684Y4956352D01*
X3093974Y5065318D02*
G01*
X3093974Y4956352D01*
X3093974Y5065318D02*
G01*
X3130550Y5065318D01*
X3146043Y5060238D01*
X3156458Y5049824D01*
X3161538Y5039410D01*
X3166872Y5023662D01*
X3166872Y4997754D01*
X3161538Y4982260D01*
X3156458Y4971846D01*
X3146043Y4961432D01*
X3130550Y4956352D01*
X3093974Y4956352D01*
X3211575Y5065318D02*
G01*
X3268725Y5065318D01*
X3237484Y5023662D01*
X3252977Y5023662D01*
X3263391Y5018582D01*
X3268725Y5013502D01*
X3273806Y4997754D01*
X3273806Y4987340D01*
X3268725Y4971846D01*
X3258311Y4961432D01*
X3242563Y4956352D01*
X3227070Y4956352D01*
X3211575Y4961432D01*
X3206241Y4966512D01*
X3201161Y4976926D01*
X3594100Y5065318D02*
G01*
X3594100Y4956352D01*
X3594100Y4956352D02*
G01*
X3656329Y4956352D01*
X3690620Y5065318D02*
G01*
X3690620Y4956352D01*
X3690620Y5065318D02*
G01*
X3758184Y5065318D01*
X3690620Y5013502D02*
G01*
X3732275Y5013502D01*
X3690620Y4956352D02*
G01*
X3758184Y4956352D01*
X3792474Y5065318D02*
G01*
X3792474Y4956352D01*
X3792474Y5065318D02*
G01*
X3829050Y5065318D01*
X3844543Y5060238D01*
X3854958Y5049824D01*
X3860038Y5039410D01*
X3865372Y5023662D01*
X3865372Y4997754D01*
X3860038Y4982260D01*
X3854958Y4971846D01*
X3844543Y4961432D01*
X3829050Y4956352D01*
X3792474Y4956352D01*
X3951477Y5065318D02*
G01*
X3899661Y4992674D01*
X3977640Y4992674D01*
X3951477Y5065318D02*
G01*
X3951477Y4956352D01*
X4279900Y5065318D02*
G01*
X4279900Y4956352D01*
X4279900Y4956352D02*
G01*
X4342129Y4956352D01*
X4376420Y5065318D02*
G01*
X4376420Y4956352D01*
X4376420Y5065318D02*
G01*
X4443984Y5065318D01*
X4376420Y5013502D02*
G01*
X4418075Y5013502D01*
X4376420Y4956352D02*
G01*
X4443984Y4956352D01*
X4478274Y5065318D02*
G01*
X4478274Y4956352D01*
X4478274Y5065318D02*
G01*
X4514850Y5065318D01*
X4530343Y5060238D01*
X4540758Y5049824D01*
X4545838Y5039410D01*
X4551172Y5023662D01*
X4551172Y4997754D01*
X4545838Y4982260D01*
X4540758Y4971846D01*
X4530343Y4961432D01*
X4514850Y4956352D01*
X4478274Y4956352D01*
X4647691Y5065318D02*
G01*
X4595875Y5065318D01*
X4590541Y5018582D01*
X4595875Y5023662D01*
X4611370Y5028996D01*
X4626863Y5028996D01*
X4642611Y5023662D01*
X4653025Y5013502D01*
X4658106Y4997754D01*
X4658106Y4987340D01*
X4653025Y4971846D01*
X4642611Y4961432D01*
X4626863Y4956352D01*
X4611370Y4956352D01*
X4595875Y4961432D01*
X4590541Y4966512D01*
X4585461Y4976926D01*
X4953000Y5065318D02*
G01*
X4953000Y4956352D01*
X4953000Y4956352D02*
G01*
X5015229Y4956352D01*
X5049520Y5065318D02*
G01*
X5049520Y4956352D01*
X5049520Y5065318D02*
G01*
X5117084Y5065318D01*
X5049520Y5013502D02*
G01*
X5091175Y5013502D01*
X5049520Y4956352D02*
G01*
X5117084Y4956352D01*
X5151374Y5065318D02*
G01*
X5151374Y4956352D01*
X5151374Y5065318D02*
G01*
X5187950Y5065318D01*
X5203443Y5060238D01*
X5213858Y5049824D01*
X5218938Y5039410D01*
X5224272Y5023662D01*
X5224272Y4997754D01*
X5218938Y4982260D01*
X5213858Y4971846D01*
X5203443Y4961432D01*
X5187950Y4956352D01*
X5151374Y4956352D01*
X5320791Y5049824D02*
G01*
X5315711Y5060238D01*
X5299963Y5065318D01*
X5289550Y5065318D01*
X5274056Y5060238D01*
X5263641Y5044490D01*
X5258561Y5018582D01*
X5258561Y4992674D01*
X5263641Y4971846D01*
X5274056Y4961432D01*
X5289550Y4956352D01*
X5294884Y4956352D01*
X5310377Y4961432D01*
X5320791Y4971846D01*
X5326125Y4987340D01*
X5326125Y4992674D01*
X5320791Y5008168D01*
X5310377Y5018582D01*
X5294884Y5023662D01*
X5289550Y5023662D01*
X5274056Y5018582D01*
X5263641Y5008168D01*
X5258561Y4992674D01*
X5613400Y5065318D02*
G01*
X5613400Y4956352D01*
X5613400Y4956352D02*
G01*
X5675629Y4956352D01*
X5709920Y5065318D02*
G01*
X5709920Y4956352D01*
X5709920Y5065318D02*
G01*
X5777484Y5065318D01*
X5709920Y5013502D02*
G01*
X5751575Y5013502D01*
X5709920Y4956352D02*
G01*
X5777484Y4956352D01*
X5811774Y5065318D02*
G01*
X5811774Y4956352D01*
X5811774Y5065318D02*
G01*
X5848350Y5065318D01*
X5863843Y5060238D01*
X5874258Y5049824D01*
X5879338Y5039410D01*
X5884672Y5023662D01*
X5884672Y4997754D01*
X5879338Y4982260D01*
X5874258Y4971846D01*
X5863843Y4961432D01*
X5848350Y4956352D01*
X5811774Y4956352D01*
X5991606Y5065318D02*
G01*
X5939790Y4956352D01*
X5918961Y5065318D02*
G01*
X5991606Y5065318D01*
X6261100Y5065318D02*
G01*
X6261100Y4956352D01*
X6261100Y4956352D02*
G01*
X6323329Y4956352D01*
X6357620Y5065318D02*
G01*
X6357620Y4956352D01*
X6357620Y5065318D02*
G01*
X6425184Y5065318D01*
X6357620Y5013502D02*
G01*
X6399275Y5013502D01*
X6357620Y4956352D02*
G01*
X6425184Y4956352D01*
X6459474Y5065318D02*
G01*
X6459474Y4956352D01*
X6459474Y5065318D02*
G01*
X6496050Y5065318D01*
X6511543Y5060238D01*
X6521958Y5049824D01*
X6527038Y5039410D01*
X6532372Y5023662D01*
X6532372Y4997754D01*
X6527038Y4982260D01*
X6521958Y4971846D01*
X6511543Y4961432D01*
X6496050Y4956352D01*
X6459474Y4956352D01*
X6592570Y5065318D02*
G01*
X6577075Y5060238D01*
X6571741Y5049824D01*
X6571741Y5039410D01*
X6577075Y5028996D01*
X6587490Y5023662D01*
X6608063Y5018582D01*
X6623811Y5013502D01*
X6634225Y5003088D01*
X6639306Y4992674D01*
X6639306Y4976926D01*
X6634225Y4966512D01*
X6628891Y4961432D01*
X6613397Y4956352D01*
X6592570Y4956352D01*
X6577075Y4961432D01*
X6571741Y4966512D01*
X6566661Y4976926D01*
X6566661Y4992674D01*
X6571741Y5003088D01*
X6582156Y5013502D01*
X6597650Y5018582D01*
X6618477Y5023662D01*
X6628891Y5028996D01*
X6634225Y5039410D01*
X6634225Y5049824D01*
X6628891Y5060238D01*
X6613397Y5065318D01*
X6592570Y5065318D01*
X6261100Y4328718D02*
G01*
X6261100Y4219752D01*
X6261100Y4219752D02*
G01*
X6323329Y4219752D01*
X6357620Y4328718D02*
G01*
X6357620Y4219752D01*
X6357620Y4328718D02*
G01*
X6425184Y4328718D01*
X6357620Y4276902D02*
G01*
X6399275Y4276902D01*
X6357620Y4219752D02*
G01*
X6425184Y4219752D01*
X6459474Y4328718D02*
G01*
X6459474Y4219752D01*
X6459474Y4328718D02*
G01*
X6496050Y4328718D01*
X6511543Y4323638D01*
X6521958Y4313224D01*
X6527038Y4302810D01*
X6532372Y4287062D01*
X6532372Y4261154D01*
X6527038Y4245660D01*
X6521958Y4235246D01*
X6511543Y4224832D01*
X6496050Y4219752D01*
X6459474Y4219752D01*
X6566661Y4307890D02*
G01*
X6577075Y4313224D01*
X6592570Y4328718D01*
X6592570Y4219752D01*
X6689090Y4313224D02*
G01*
X6684009Y4323638D01*
X6668515Y4328718D01*
X6658102Y4328718D01*
X6642354Y4323638D01*
X6631940Y4307890D01*
X6626859Y4281982D01*
X6626859Y4256074D01*
X6631940Y4235246D01*
X6642354Y4224832D01*
X6658102Y4219752D01*
X6663181Y4219752D01*
X6678929Y4224832D01*
X6689090Y4235246D01*
X6694424Y4250740D01*
X6694424Y4256074D01*
X6689090Y4271568D01*
X6678929Y4281982D01*
X6663181Y4287062D01*
X6658102Y4287062D01*
X6642354Y4281982D01*
X6631940Y4271568D01*
X6626859Y4256074D01*
X5613400Y4328718D02*
G01*
X5613400Y4219752D01*
X5613400Y4219752D02*
G01*
X5675629Y4219752D01*
X5709920Y4328718D02*
G01*
X5709920Y4219752D01*
X5709920Y4328718D02*
G01*
X5777484Y4328718D01*
X5709920Y4276902D02*
G01*
X5751575Y4276902D01*
X5709920Y4219752D02*
G01*
X5777484Y4219752D01*
X5811774Y4328718D02*
G01*
X5811774Y4219752D01*
X5811774Y4328718D02*
G01*
X5848350Y4328718D01*
X5863843Y4323638D01*
X5874258Y4313224D01*
X5879338Y4302810D01*
X5884672Y4287062D01*
X5884672Y4261154D01*
X5879338Y4245660D01*
X5874258Y4235246D01*
X5863843Y4224832D01*
X5848350Y4219752D01*
X5811774Y4219752D01*
X5918961Y4307890D02*
G01*
X5929375Y4313224D01*
X5944870Y4328718D01*
X5944870Y4219752D01*
X6041390Y4328718D02*
G01*
X5989574Y4328718D01*
X5984240Y4281982D01*
X5989574Y4287062D01*
X6005068Y4292396D01*
X6020815Y4292396D01*
X6036309Y4287062D01*
X6046724Y4276902D01*
X6051804Y4261154D01*
X6051804Y4250740D01*
X6046724Y4235246D01*
X6036309Y4224832D01*
X6020815Y4219752D01*
X6005068Y4219752D01*
X5989574Y4224832D01*
X5984240Y4229912D01*
X5979159Y4240326D01*
X4953000Y4328718D02*
G01*
X4953000Y4219752D01*
X4953000Y4219752D02*
G01*
X5015229Y4219752D01*
X5049520Y4328718D02*
G01*
X5049520Y4219752D01*
X5049520Y4328718D02*
G01*
X5117084Y4328718D01*
X5049520Y4276902D02*
G01*
X5091175Y4276902D01*
X5049520Y4219752D02*
G01*
X5117084Y4219752D01*
X5151374Y4328718D02*
G01*
X5151374Y4219752D01*
X5151374Y4328718D02*
G01*
X5187950Y4328718D01*
X5203443Y4323638D01*
X5213858Y4313224D01*
X5218938Y4302810D01*
X5224272Y4287062D01*
X5224272Y4261154D01*
X5218938Y4245660D01*
X5213858Y4235246D01*
X5203443Y4224832D01*
X5187950Y4219752D01*
X5151374Y4219752D01*
X5258561Y4307890D02*
G01*
X5268975Y4313224D01*
X5284470Y4328718D01*
X5284470Y4219752D01*
X5370829Y4328718D02*
G01*
X5318759Y4256074D01*
X5396738Y4256074D01*
X5370829Y4328718D02*
G01*
X5370829Y4219752D01*
X4279900Y4328718D02*
G01*
X4279900Y4219752D01*
X4279900Y4219752D02*
G01*
X4342129Y4219752D01*
X4376420Y4328718D02*
G01*
X4376420Y4219752D01*
X4376420Y4328718D02*
G01*
X4443984Y4328718D01*
X4376420Y4276902D02*
G01*
X4418075Y4276902D01*
X4376420Y4219752D02*
G01*
X4443984Y4219752D01*
X4478274Y4328718D02*
G01*
X4478274Y4219752D01*
X4478274Y4328718D02*
G01*
X4514850Y4328718D01*
X4530343Y4323638D01*
X4540758Y4313224D01*
X4545838Y4302810D01*
X4551172Y4287062D01*
X4551172Y4261154D01*
X4545838Y4245660D01*
X4540758Y4235246D01*
X4530343Y4224832D01*
X4514850Y4219752D01*
X4478274Y4219752D01*
X4585461Y4307890D02*
G01*
X4595875Y4313224D01*
X4611370Y4328718D01*
X4611370Y4219752D01*
X4656074Y4328718D02*
G01*
X4713224Y4328718D01*
X4681981Y4287062D01*
X4697729Y4287062D01*
X4707890Y4281982D01*
X4713224Y4276902D01*
X4718304Y4261154D01*
X4718304Y4250740D01*
X4713224Y4235246D01*
X4702809Y4224832D01*
X4687315Y4219752D01*
X4671568Y4219752D01*
X4656074Y4224832D01*
X4650740Y4229912D01*
X4645659Y4240326D01*
X3594100Y4328718D02*
G01*
X3594100Y4219752D01*
X3594100Y4219752D02*
G01*
X3656329Y4219752D01*
X3690620Y4328718D02*
G01*
X3690620Y4219752D01*
X3690620Y4328718D02*
G01*
X3758184Y4328718D01*
X3690620Y4276902D02*
G01*
X3732275Y4276902D01*
X3690620Y4219752D02*
G01*
X3758184Y4219752D01*
X3792474Y4328718D02*
G01*
X3792474Y4219752D01*
X3792474Y4328718D02*
G01*
X3829050Y4328718D01*
X3844543Y4323638D01*
X3854958Y4313224D01*
X3860038Y4302810D01*
X3865372Y4287062D01*
X3865372Y4261154D01*
X3860038Y4245660D01*
X3854958Y4235246D01*
X3844543Y4224832D01*
X3829050Y4219752D01*
X3792474Y4219752D01*
X3899661Y4307890D02*
G01*
X3910075Y4313224D01*
X3925570Y4328718D01*
X3925570Y4219752D01*
X3964940Y4302810D02*
G01*
X3964940Y4307890D01*
X3970274Y4318304D01*
X3975354Y4323638D01*
X3985768Y4328718D01*
X4006595Y4328718D01*
X4017009Y4323638D01*
X4022090Y4318304D01*
X4027424Y4307890D01*
X4027424Y4297476D01*
X4022090Y4287062D01*
X4011929Y4271568D01*
X3959859Y4219752D01*
X4032504Y4219752D01*
X2895600Y4328718D02*
G01*
X2895600Y4219752D01*
X2895600Y4219752D02*
G01*
X2957829Y4219752D01*
X2992120Y4328718D02*
G01*
X2992120Y4219752D01*
X2992120Y4328718D02*
G01*
X3059684Y4328718D01*
X2992120Y4276902D02*
G01*
X3033775Y4276902D01*
X2992120Y4219752D02*
G01*
X3059684Y4219752D01*
X3093974Y4328718D02*
G01*
X3093974Y4219752D01*
X3093974Y4328718D02*
G01*
X3130550Y4328718D01*
X3146043Y4323638D01*
X3156458Y4313224D01*
X3161538Y4302810D01*
X3166872Y4287062D01*
X3166872Y4261154D01*
X3161538Y4245660D01*
X3156458Y4235246D01*
X3146043Y4224832D01*
X3130550Y4219752D01*
X3093974Y4219752D01*
X3201161Y4307890D02*
G01*
X3211575Y4313224D01*
X3227070Y4328718D01*
X3227070Y4219752D01*
X3261359Y4307890D02*
G01*
X3271774Y4313224D01*
X3287268Y4328718D01*
X3287268Y4219752D01*
X2197100Y4328718D02*
G01*
X2197100Y4219752D01*
X2197100Y4219752D02*
G01*
X2259329Y4219752D01*
X2293620Y4328718D02*
G01*
X2293620Y4219752D01*
X2293620Y4328718D02*
G01*
X2361184Y4328718D01*
X2293620Y4276902D02*
G01*
X2335275Y4276902D01*
X2293620Y4219752D02*
G01*
X2361184Y4219752D01*
X2395474Y4328718D02*
G01*
X2395474Y4219752D01*
X2395474Y4328718D02*
G01*
X2432050Y4328718D01*
X2447543Y4323638D01*
X2457958Y4313224D01*
X2463038Y4302810D01*
X2468372Y4287062D01*
X2468372Y4261154D01*
X2463038Y4245660D01*
X2457958Y4235246D01*
X2447543Y4224832D01*
X2432050Y4219752D01*
X2395474Y4219752D01*
X2502661Y4307890D02*
G01*
X2513075Y4313224D01*
X2528570Y4328718D01*
X2528570Y4219752D01*
X2594102Y4328718D02*
G01*
X2578354Y4323638D01*
X2567940Y4307890D01*
X2562859Y4281982D01*
X2562859Y4266488D01*
X2567940Y4240326D01*
X2578354Y4224832D01*
X2594102Y4219752D01*
X2604515Y4219752D01*
X2620009Y4224832D01*
X2630424Y4240326D01*
X2635504Y4266488D01*
X2635504Y4281982D01*
X2630424Y4307890D01*
X2620009Y4323638D01*
X2604515Y4328718D01*
X2594102Y4328718D01*
X1498600Y4328718D02*
G01*
X1498600Y4219752D01*
X1498600Y4219752D02*
G01*
X1560829Y4219752D01*
X1595120Y4328718D02*
G01*
X1595120Y4219752D01*
X1595120Y4328718D02*
G01*
X1662684Y4328718D01*
X1595120Y4276902D02*
G01*
X1636776Y4276902D01*
X1595120Y4219752D02*
G01*
X1662684Y4219752D01*
X1696973Y4328718D02*
G01*
X1696973Y4219752D01*
X1696973Y4328718D02*
G01*
X1733550Y4328718D01*
X1749044Y4323638D01*
X1759457Y4313224D01*
X1764537Y4302810D01*
X1769871Y4287062D01*
X1769871Y4261154D01*
X1764537Y4245660D01*
X1759457Y4235246D01*
X1749044Y4224832D01*
X1733550Y4219752D01*
X1696973Y4219752D01*
X1871726Y4292396D02*
G01*
X1866392Y4276902D01*
X1855978Y4266488D01*
X1840484Y4261154D01*
X1835150Y4261154D01*
X1819655Y4266488D01*
X1809242Y4276902D01*
X1804162Y4292396D01*
X1804162Y4297476D01*
X1809242Y4313224D01*
X1819655Y4323638D01*
X1835150Y4328718D01*
X1840484Y4328718D01*
X1855978Y4323638D01*
X1866392Y4313224D01*
X1871726Y4292396D01*
X1871726Y4266488D01*
X1866392Y4240326D01*
X1855978Y4224832D01*
X1840484Y4219752D01*
X1830070Y4219752D01*
X1814576Y4224832D01*
X1809242Y4235246D01*
X6261100Y3541318D02*
G01*
X6261100Y3432352D01*
X6261100Y3432352D02*
G01*
X6323329Y3432352D01*
X6357620Y3541318D02*
G01*
X6357620Y3432352D01*
X6357620Y3541318D02*
G01*
X6425184Y3541318D01*
X6357620Y3489502D02*
G01*
X6399275Y3489502D01*
X6357620Y3432352D02*
G01*
X6425184Y3432352D01*
X6459474Y3541318D02*
G01*
X6459474Y3432352D01*
X6459474Y3541318D02*
G01*
X6496050Y3541318D01*
X6511543Y3536238D01*
X6521958Y3525824D01*
X6527038Y3515410D01*
X6532372Y3499662D01*
X6532372Y3473754D01*
X6527038Y3458260D01*
X6521958Y3447846D01*
X6511543Y3437432D01*
X6496050Y3432352D01*
X6459474Y3432352D01*
X6571741Y3515410D02*
G01*
X6571741Y3520490D01*
X6577075Y3530904D01*
X6582156Y3536238D01*
X6592570Y3541318D01*
X6613397Y3541318D01*
X6623811Y3536238D01*
X6628891Y3530904D01*
X6634225Y3520490D01*
X6634225Y3510076D01*
X6628891Y3499662D01*
X6618477Y3484168D01*
X6566661Y3432352D01*
X6639306Y3432352D01*
X6725665Y3541318D02*
G01*
X6673595Y3468674D01*
X6751574Y3468674D01*
X6725665Y3541318D02*
G01*
X6725665Y3432352D01*
X5613400Y3541318D02*
G01*
X5613400Y3432352D01*
X5613400Y3432352D02*
G01*
X5675629Y3432352D01*
X5709920Y3541318D02*
G01*
X5709920Y3432352D01*
X5709920Y3541318D02*
G01*
X5777484Y3541318D01*
X5709920Y3489502D02*
G01*
X5751575Y3489502D01*
X5709920Y3432352D02*
G01*
X5777484Y3432352D01*
X5811774Y3541318D02*
G01*
X5811774Y3432352D01*
X5811774Y3541318D02*
G01*
X5848350Y3541318D01*
X5863843Y3536238D01*
X5874258Y3525824D01*
X5879338Y3515410D01*
X5884672Y3499662D01*
X5884672Y3473754D01*
X5879338Y3458260D01*
X5874258Y3447846D01*
X5863843Y3437432D01*
X5848350Y3432352D01*
X5811774Y3432352D01*
X5924041Y3515410D02*
G01*
X5924041Y3520490D01*
X5929375Y3530904D01*
X5934456Y3536238D01*
X5944870Y3541318D01*
X5965697Y3541318D01*
X5976111Y3536238D01*
X5981191Y3530904D01*
X5986525Y3520490D01*
X5986525Y3510076D01*
X5981191Y3499662D01*
X5970777Y3484168D01*
X5918961Y3432352D01*
X5991606Y3432352D01*
X6036309Y3541318D02*
G01*
X6093459Y3541318D01*
X6062218Y3499662D01*
X6077965Y3499662D01*
X6088379Y3494582D01*
X6093459Y3489502D01*
X6098540Y3473754D01*
X6098540Y3463340D01*
X6093459Y3447846D01*
X6083045Y3437432D01*
X6067552Y3432352D01*
X6051804Y3432352D01*
X6036309Y3437432D01*
X6031229Y3442512D01*
X6025895Y3452926D01*
X4953000Y3541318D02*
G01*
X4953000Y3432352D01*
X4953000Y3432352D02*
G01*
X5015229Y3432352D01*
X5049520Y3541318D02*
G01*
X5049520Y3432352D01*
X5049520Y3541318D02*
G01*
X5117084Y3541318D01*
X5049520Y3489502D02*
G01*
X5091175Y3489502D01*
X5049520Y3432352D02*
G01*
X5117084Y3432352D01*
X5151374Y3541318D02*
G01*
X5151374Y3432352D01*
X5151374Y3541318D02*
G01*
X5187950Y3541318D01*
X5203443Y3536238D01*
X5213858Y3525824D01*
X5218938Y3515410D01*
X5224272Y3499662D01*
X5224272Y3473754D01*
X5218938Y3458260D01*
X5213858Y3447846D01*
X5203443Y3437432D01*
X5187950Y3432352D01*
X5151374Y3432352D01*
X5263641Y3515410D02*
G01*
X5263641Y3520490D01*
X5268975Y3530904D01*
X5274056Y3536238D01*
X5284470Y3541318D01*
X5305297Y3541318D01*
X5315711Y3536238D01*
X5320791Y3530904D01*
X5326125Y3520490D01*
X5326125Y3510076D01*
X5320791Y3499662D01*
X5310377Y3484168D01*
X5258561Y3432352D01*
X5331206Y3432352D01*
X5370829Y3515410D02*
G01*
X5370829Y3520490D01*
X5375909Y3530904D01*
X5380990Y3536238D01*
X5391404Y3541318D01*
X5412231Y3541318D01*
X5422645Y3536238D01*
X5427979Y3530904D01*
X5433059Y3520490D01*
X5433059Y3510076D01*
X5427979Y3499662D01*
X5417565Y3484168D01*
X5365495Y3432352D01*
X5438140Y3432352D01*
X4279900Y3541318D02*
G01*
X4279900Y3432352D01*
X4279900Y3432352D02*
G01*
X4342129Y3432352D01*
X4376420Y3541318D02*
G01*
X4376420Y3432352D01*
X4376420Y3541318D02*
G01*
X4443984Y3541318D01*
X4376420Y3489502D02*
G01*
X4418075Y3489502D01*
X4376420Y3432352D02*
G01*
X4443984Y3432352D01*
X4478274Y3541318D02*
G01*
X4478274Y3432352D01*
X4478274Y3541318D02*
G01*
X4514850Y3541318D01*
X4530343Y3536238D01*
X4540758Y3525824D01*
X4545838Y3515410D01*
X4551172Y3499662D01*
X4551172Y3473754D01*
X4545838Y3458260D01*
X4540758Y3447846D01*
X4530343Y3437432D01*
X4514850Y3432352D01*
X4478274Y3432352D01*
X4590541Y3515410D02*
G01*
X4590541Y3520490D01*
X4595875Y3530904D01*
X4600956Y3536238D01*
X4611370Y3541318D01*
X4632197Y3541318D01*
X4642611Y3536238D01*
X4647691Y3530904D01*
X4653025Y3520490D01*
X4653025Y3510076D01*
X4647691Y3499662D01*
X4637277Y3484168D01*
X4585461Y3432352D01*
X4658106Y3432352D01*
X4692395Y3520490D02*
G01*
X4702809Y3525824D01*
X4718304Y3541318D01*
X4718304Y3432352D01*
X3594100Y3541318D02*
G01*
X3594100Y3432352D01*
X3594100Y3432352D02*
G01*
X3656329Y3432352D01*
X3690620Y3541318D02*
G01*
X3690620Y3432352D01*
X3690620Y3541318D02*
G01*
X3758184Y3541318D01*
X3690620Y3489502D02*
G01*
X3732275Y3489502D01*
X3690620Y3432352D02*
G01*
X3758184Y3432352D01*
X3792474Y3541318D02*
G01*
X3792474Y3432352D01*
X3792474Y3541318D02*
G01*
X3829050Y3541318D01*
X3844543Y3536238D01*
X3854958Y3525824D01*
X3860038Y3515410D01*
X3865372Y3499662D01*
X3865372Y3473754D01*
X3860038Y3458260D01*
X3854958Y3447846D01*
X3844543Y3437432D01*
X3829050Y3432352D01*
X3792474Y3432352D01*
X3904741Y3515410D02*
G01*
X3904741Y3520490D01*
X3910075Y3530904D01*
X3915156Y3536238D01*
X3925570Y3541318D01*
X3946397Y3541318D01*
X3956811Y3536238D01*
X3961891Y3530904D01*
X3967225Y3520490D01*
X3967225Y3510076D01*
X3961891Y3499662D01*
X3951477Y3484168D01*
X3899661Y3432352D01*
X3972306Y3432352D01*
X4037838Y3541318D02*
G01*
X4022090Y3536238D01*
X4011929Y3520490D01*
X4006595Y3494582D01*
X4006595Y3479088D01*
X4011929Y3452926D01*
X4022090Y3437432D01*
X4037838Y3432352D01*
X4048252Y3432352D01*
X4063745Y3437432D01*
X4074159Y3452926D01*
X4079240Y3479088D01*
X4079240Y3494582D01*
X4074159Y3520490D01*
X4063745Y3536238D01*
X4048252Y3541318D01*
X4037838Y3541318D01*
X2895600Y3541318D02*
G01*
X2895600Y3432352D01*
X2895600Y3432352D02*
G01*
X2957829Y3432352D01*
X2992120Y3541318D02*
G01*
X2992120Y3432352D01*
X2992120Y3541318D02*
G01*
X3059684Y3541318D01*
X2992120Y3489502D02*
G01*
X3033775Y3489502D01*
X2992120Y3432352D02*
G01*
X3059684Y3432352D01*
X3093974Y3541318D02*
G01*
X3093974Y3432352D01*
X3093974Y3541318D02*
G01*
X3130550Y3541318D01*
X3146043Y3536238D01*
X3156458Y3525824D01*
X3161538Y3515410D01*
X3166872Y3499662D01*
X3166872Y3473754D01*
X3161538Y3458260D01*
X3156458Y3447846D01*
X3146043Y3437432D01*
X3130550Y3432352D01*
X3093974Y3432352D01*
X3201161Y3520490D02*
G01*
X3211575Y3525824D01*
X3227070Y3541318D01*
X3227070Y3432352D01*
X3328924Y3504996D02*
G01*
X3323590Y3489502D01*
X3313429Y3479088D01*
X3297681Y3473754D01*
X3292602Y3473754D01*
X3276854Y3479088D01*
X3266440Y3489502D01*
X3261359Y3504996D01*
X3261359Y3510076D01*
X3266440Y3525824D01*
X3276854Y3536238D01*
X3292602Y3541318D01*
X3297681Y3541318D01*
X3313429Y3536238D01*
X3323590Y3525824D01*
X3328924Y3504996D01*
X3328924Y3479088D01*
X3323590Y3452926D01*
X3313429Y3437432D01*
X3297681Y3432352D01*
X3287268Y3432352D01*
X3271774Y3437432D01*
X3266440Y3447846D01*
X2197100Y3541318D02*
G01*
X2197100Y3432352D01*
X2197100Y3432352D02*
G01*
X2259329Y3432352D01*
X2293620Y3541318D02*
G01*
X2293620Y3432352D01*
X2293620Y3541318D02*
G01*
X2361184Y3541318D01*
X2293620Y3489502D02*
G01*
X2335275Y3489502D01*
X2293620Y3432352D02*
G01*
X2361184Y3432352D01*
X2395474Y3541318D02*
G01*
X2395474Y3432352D01*
X2395474Y3541318D02*
G01*
X2432050Y3541318D01*
X2447543Y3536238D01*
X2457958Y3525824D01*
X2463038Y3515410D01*
X2468372Y3499662D01*
X2468372Y3473754D01*
X2463038Y3458260D01*
X2457958Y3447846D01*
X2447543Y3437432D01*
X2432050Y3432352D01*
X2395474Y3432352D01*
X2502661Y3520490D02*
G01*
X2513075Y3525824D01*
X2528570Y3541318D01*
X2528570Y3432352D01*
X2588768Y3541318D02*
G01*
X2573274Y3536238D01*
X2567940Y3525824D01*
X2567940Y3515410D01*
X2573274Y3504996D01*
X2583688Y3499662D01*
X2604515Y3494582D01*
X2620009Y3489502D01*
X2630424Y3479088D01*
X2635504Y3468674D01*
X2635504Y3452926D01*
X2630424Y3442512D01*
X2625090Y3437432D01*
X2609595Y3432352D01*
X2588768Y3432352D01*
X2573274Y3437432D01*
X2567940Y3442512D01*
X2562859Y3452926D01*
X2562859Y3468674D01*
X2567940Y3479088D01*
X2578354Y3489502D01*
X2594102Y3494582D01*
X2614929Y3499662D01*
X2625090Y3504996D01*
X2630424Y3515410D01*
X2630424Y3525824D01*
X2625090Y3536238D01*
X2609595Y3541318D01*
X2588768Y3541318D01*
X1498600Y3541318D02*
G01*
X1498600Y3432352D01*
X1498600Y3432352D02*
G01*
X1560829Y3432352D01*
X1595120Y3541318D02*
G01*
X1595120Y3432352D01*
X1595120Y3541318D02*
G01*
X1662684Y3541318D01*
X1595120Y3489502D02*
G01*
X1636776Y3489502D01*
X1595120Y3432352D02*
G01*
X1662684Y3432352D01*
X1696973Y3541318D02*
G01*
X1696973Y3432352D01*
X1696973Y3541318D02*
G01*
X1733550Y3541318D01*
X1749044Y3536238D01*
X1759457Y3525824D01*
X1764537Y3515410D01*
X1769871Y3499662D01*
X1769871Y3473754D01*
X1764537Y3458260D01*
X1759457Y3447846D01*
X1749044Y3437432D01*
X1733550Y3432352D01*
X1696973Y3432352D01*
X1804162Y3520490D02*
G01*
X1814576Y3525824D01*
X1830070Y3541318D01*
X1830070Y3432352D01*
X1937004Y3541318D02*
G01*
X1885187Y3432352D01*
X1864360Y3541318D02*
G01*
X1937004Y3541318D01*
X12585700Y5065318D02*
G01*
X12585700Y4956352D01*
X12585700Y4956352D02*
G01*
X12647929Y4956352D01*
X12682220Y5065318D02*
G01*
X12682220Y4956352D01*
X12682220Y5065318D02*
G01*
X12749784Y5065318D01*
X12682220Y5013502D02*
G01*
X12723875Y5013502D01*
X12682220Y4956352D02*
G01*
X12749784Y4956352D01*
X12784074Y5065318D02*
G01*
X12784074Y4956352D01*
X12784074Y5065318D02*
G01*
X12820650Y5065318D01*
X12836143Y5060238D01*
X12846558Y5049824D01*
X12851638Y5039410D01*
X12856972Y5023662D01*
X12856972Y4997754D01*
X12851638Y4982260D01*
X12846558Y4971846D01*
X12836143Y4961432D01*
X12820650Y4956352D01*
X12784074Y4956352D01*
X12901675Y5065318D02*
G01*
X12958825Y5065318D01*
X12927584Y5023662D01*
X12943077Y5023662D01*
X12953491Y5018582D01*
X12958825Y5013502D01*
X12963906Y4997754D01*
X12963906Y4987340D01*
X12958825Y4971846D01*
X12948411Y4961432D01*
X12932663Y4956352D01*
X12917170Y4956352D01*
X12901675Y4961432D01*
X12896341Y4966512D01*
X12891261Y4976926D01*
X13003529Y5039410D02*
G01*
X13003529Y5044490D01*
X13008609Y5054904D01*
X13013690Y5060238D01*
X13024104Y5065318D01*
X13044931Y5065318D01*
X13055345Y5060238D01*
X13060679Y5054904D01*
X13065759Y5044490D01*
X13065759Y5034076D01*
X13060679Y5023662D01*
X13050265Y5008168D01*
X12998195Y4956352D01*
X13070840Y4956352D01*
X11874500Y5065318D02*
G01*
X11874500Y4956352D01*
X11874500Y4956352D02*
G01*
X11936729Y4956352D01*
X11971020Y5065318D02*
G01*
X11971020Y4956352D01*
X11971020Y5065318D02*
G01*
X12038584Y5065318D01*
X11971020Y5013502D02*
G01*
X12012675Y5013502D01*
X11971020Y4956352D02*
G01*
X12038584Y4956352D01*
X12072874Y5065318D02*
G01*
X12072874Y4956352D01*
X12072874Y5065318D02*
G01*
X12109450Y5065318D01*
X12124943Y5060238D01*
X12135358Y5049824D01*
X12140438Y5039410D01*
X12145772Y5023662D01*
X12145772Y4997754D01*
X12140438Y4982260D01*
X12135358Y4971846D01*
X12124943Y4961432D01*
X12109450Y4956352D01*
X12072874Y4956352D01*
X12190475Y5065318D02*
G01*
X12247625Y5065318D01*
X12216384Y5023662D01*
X12231877Y5023662D01*
X12242291Y5018582D01*
X12247625Y5013502D01*
X12252706Y4997754D01*
X12252706Y4987340D01*
X12247625Y4971846D01*
X12237211Y4961432D01*
X12221463Y4956352D01*
X12205970Y4956352D01*
X12190475Y4961432D01*
X12185141Y4966512D01*
X12180061Y4976926D01*
X12286995Y5044490D02*
G01*
X12297409Y5049824D01*
X12312904Y5065318D01*
X12312904Y4956352D01*
X11150600Y5065318D02*
G01*
X11150600Y4956352D01*
X11150600Y4956352D02*
G01*
X11212829Y4956352D01*
X11247120Y5065318D02*
G01*
X11247120Y4956352D01*
X11247120Y5065318D02*
G01*
X11314684Y5065318D01*
X11247120Y5013502D02*
G01*
X11288775Y5013502D01*
X11247120Y4956352D02*
G01*
X11314684Y4956352D01*
X11348974Y5065318D02*
G01*
X11348974Y4956352D01*
X11348974Y5065318D02*
G01*
X11385550Y5065318D01*
X11401043Y5060238D01*
X11411458Y5049824D01*
X11416538Y5039410D01*
X11421872Y5023662D01*
X11421872Y4997754D01*
X11416538Y4982260D01*
X11411458Y4971846D01*
X11401043Y4961432D01*
X11385550Y4956352D01*
X11348974Y4956352D01*
X11466575Y5065318D02*
G01*
X11523725Y5065318D01*
X11492484Y5023662D01*
X11507977Y5023662D01*
X11518391Y5018582D01*
X11523725Y5013502D01*
X11528806Y4997754D01*
X11528806Y4987340D01*
X11523725Y4971846D01*
X11513311Y4961432D01*
X11497563Y4956352D01*
X11482070Y4956352D01*
X11466575Y4961432D01*
X11461241Y4966512D01*
X11456161Y4976926D01*
X11594338Y5065318D02*
G01*
X11578590Y5060238D01*
X11568429Y5044490D01*
X11563095Y5018582D01*
X11563095Y5003088D01*
X11568429Y4976926D01*
X11578590Y4961432D01*
X11594338Y4956352D01*
X11604752Y4956352D01*
X11620245Y4961432D01*
X11630659Y4976926D01*
X11635740Y5003088D01*
X11635740Y5018582D01*
X11630659Y5044490D01*
X11620245Y5060238D01*
X11604752Y5065318D01*
X11594338Y5065318D01*
X10414000Y5065318D02*
G01*
X10414000Y4956352D01*
X10414000Y4956352D02*
G01*
X10476229Y4956352D01*
X10510520Y5065318D02*
G01*
X10510520Y4956352D01*
X10510520Y5065318D02*
G01*
X10578084Y5065318D01*
X10510520Y5013502D02*
G01*
X10552175Y5013502D01*
X10510520Y4956352D02*
G01*
X10578084Y4956352D01*
X10612374Y5065318D02*
G01*
X10612374Y4956352D01*
X10612374Y5065318D02*
G01*
X10648950Y5065318D01*
X10664443Y5060238D01*
X10674858Y5049824D01*
X10679938Y5039410D01*
X10685272Y5023662D01*
X10685272Y4997754D01*
X10679938Y4982260D01*
X10674858Y4971846D01*
X10664443Y4961432D01*
X10648950Y4956352D01*
X10612374Y4956352D01*
X10724641Y5039410D02*
G01*
X10724641Y5044490D01*
X10729975Y5054904D01*
X10735056Y5060238D01*
X10745470Y5065318D01*
X10766297Y5065318D01*
X10776711Y5060238D01*
X10781791Y5054904D01*
X10787125Y5044490D01*
X10787125Y5034076D01*
X10781791Y5023662D01*
X10771377Y5008168D01*
X10719561Y4956352D01*
X10792206Y4956352D01*
X10894059Y5028996D02*
G01*
X10888979Y5013502D01*
X10878565Y5003088D01*
X10862818Y4997754D01*
X10857738Y4997754D01*
X10841990Y5003088D01*
X10831829Y5013502D01*
X10826495Y5028996D01*
X10826495Y5034076D01*
X10831829Y5049824D01*
X10841990Y5060238D01*
X10857738Y5065318D01*
X10862818Y5065318D01*
X10878565Y5060238D01*
X10888979Y5049824D01*
X10894059Y5028996D01*
X10894059Y5003088D01*
X10888979Y4976926D01*
X10878565Y4961432D01*
X10862818Y4956352D01*
X10852404Y4956352D01*
X10836909Y4961432D01*
X10831829Y4971846D01*
X9677400Y5065318D02*
G01*
X9677400Y4956352D01*
X9677400Y4956352D02*
G01*
X9739629Y4956352D01*
X9773920Y5065318D02*
G01*
X9773920Y4956352D01*
X9773920Y5065318D02*
G01*
X9841484Y5065318D01*
X9773920Y5013502D02*
G01*
X9815575Y5013502D01*
X9773920Y4956352D02*
G01*
X9841484Y4956352D01*
X9875774Y5065318D02*
G01*
X9875774Y4956352D01*
X9875774Y5065318D02*
G01*
X9912350Y5065318D01*
X9927843Y5060238D01*
X9938258Y5049824D01*
X9943338Y5039410D01*
X9948672Y5023662D01*
X9948672Y4997754D01*
X9943338Y4982260D01*
X9938258Y4971846D01*
X9927843Y4961432D01*
X9912350Y4956352D01*
X9875774Y4956352D01*
X9988041Y5039410D02*
G01*
X9988041Y5044490D01*
X9993375Y5054904D01*
X9998456Y5060238D01*
X10008870Y5065318D01*
X10029697Y5065318D01*
X10040111Y5060238D01*
X10045191Y5054904D01*
X10050525Y5044490D01*
X10050525Y5034076D01*
X10045191Y5023662D01*
X10034777Y5008168D01*
X9982961Y4956352D01*
X10055606Y4956352D01*
X10115804Y5065318D02*
G01*
X10100309Y5060238D01*
X10095229Y5049824D01*
X10095229Y5039410D01*
X10100309Y5028996D01*
X10110724Y5023662D01*
X10131552Y5018582D01*
X10147045Y5013502D01*
X10157459Y5003088D01*
X10162540Y4992674D01*
X10162540Y4976926D01*
X10157459Y4966512D01*
X10152379Y4961432D01*
X10136631Y4956352D01*
X10115804Y4956352D01*
X10100309Y4961432D01*
X10095229Y4966512D01*
X10089895Y4976926D01*
X10089895Y4992674D01*
X10095229Y5003088D01*
X10105390Y5013502D01*
X10121138Y5018582D01*
X10141965Y5023662D01*
X10152379Y5028996D01*
X10157459Y5039410D01*
X10157459Y5049824D01*
X10152379Y5060238D01*
X10136631Y5065318D01*
X10115804Y5065318D01*
X8915400Y5065318D02*
G01*
X8915400Y4956352D01*
X8915400Y4956352D02*
G01*
X8977629Y4956352D01*
X9011920Y5065318D02*
G01*
X9011920Y4956352D01*
X9011920Y5065318D02*
G01*
X9079484Y5065318D01*
X9011920Y5013502D02*
G01*
X9053575Y5013502D01*
X9011920Y4956352D02*
G01*
X9079484Y4956352D01*
X9113774Y5065318D02*
G01*
X9113774Y4956352D01*
X9113774Y5065318D02*
G01*
X9150350Y5065318D01*
X9165843Y5060238D01*
X9176258Y5049824D01*
X9181338Y5039410D01*
X9186672Y5023662D01*
X9186672Y4997754D01*
X9181338Y4982260D01*
X9176258Y4971846D01*
X9165843Y4961432D01*
X9150350Y4956352D01*
X9113774Y4956352D01*
X9226041Y5039410D02*
G01*
X9226041Y5044490D01*
X9231375Y5054904D01*
X9236456Y5060238D01*
X9246870Y5065318D01*
X9267697Y5065318D01*
X9278111Y5060238D01*
X9283191Y5054904D01*
X9288525Y5044490D01*
X9288525Y5034076D01*
X9283191Y5023662D01*
X9272777Y5008168D01*
X9220961Y4956352D01*
X9293606Y4956352D01*
X9400540Y5065318D02*
G01*
X9348724Y4956352D01*
X9327895Y5065318D02*
G01*
X9400540Y5065318D01*
X8166100Y5065318D02*
G01*
X8166100Y4956352D01*
X8166100Y4956352D02*
G01*
X8228329Y4956352D01*
X8262620Y5065318D02*
G01*
X8262620Y4956352D01*
X8262620Y5065318D02*
G01*
X8330184Y5065318D01*
X8262620Y5013502D02*
G01*
X8304275Y5013502D01*
X8262620Y4956352D02*
G01*
X8330184Y4956352D01*
X8364474Y5065318D02*
G01*
X8364474Y4956352D01*
X8364474Y5065318D02*
G01*
X8401050Y5065318D01*
X8416543Y5060238D01*
X8426958Y5049824D01*
X8432038Y5039410D01*
X8437372Y5023662D01*
X8437372Y4997754D01*
X8432038Y4982260D01*
X8426958Y4971846D01*
X8416543Y4961432D01*
X8401050Y4956352D01*
X8364474Y4956352D01*
X8476741Y5039410D02*
G01*
X8476741Y5044490D01*
X8482075Y5054904D01*
X8487156Y5060238D01*
X8497570Y5065318D01*
X8518397Y5065318D01*
X8528811Y5060238D01*
X8533891Y5054904D01*
X8539225Y5044490D01*
X8539225Y5034076D01*
X8533891Y5023662D01*
X8523477Y5008168D01*
X8471661Y4956352D01*
X8544306Y4956352D01*
X8641079Y5049824D02*
G01*
X8635745Y5060238D01*
X8620252Y5065318D01*
X8609838Y5065318D01*
X8594090Y5060238D01*
X8583929Y5044490D01*
X8578595Y5018582D01*
X8578595Y4992674D01*
X8583929Y4971846D01*
X8594090Y4961432D01*
X8609838Y4956352D01*
X8614918Y4956352D01*
X8630665Y4961432D01*
X8641079Y4971846D01*
X8646159Y4987340D01*
X8646159Y4992674D01*
X8641079Y5008168D01*
X8630665Y5018582D01*
X8614918Y5023662D01*
X8609838Y5023662D01*
X8594090Y5018582D01*
X8583929Y5008168D01*
X8578595Y4992674D01*
X7416800Y5065318D02*
G01*
X7416800Y4956352D01*
X7416800Y4956352D02*
G01*
X7479029Y4956352D01*
X7513320Y5065318D02*
G01*
X7513320Y4956352D01*
X7513320Y5065318D02*
G01*
X7580884Y5065318D01*
X7513320Y5013502D02*
G01*
X7554975Y5013502D01*
X7513320Y4956352D02*
G01*
X7580884Y4956352D01*
X7615174Y5065318D02*
G01*
X7615174Y4956352D01*
X7615174Y5065318D02*
G01*
X7651750Y5065318D01*
X7667243Y5060238D01*
X7677658Y5049824D01*
X7682738Y5039410D01*
X7688072Y5023662D01*
X7688072Y4997754D01*
X7682738Y4982260D01*
X7677658Y4971846D01*
X7667243Y4961432D01*
X7651750Y4956352D01*
X7615174Y4956352D01*
X7727441Y5039410D02*
G01*
X7727441Y5044490D01*
X7732775Y5054904D01*
X7737856Y5060238D01*
X7748270Y5065318D01*
X7769097Y5065318D01*
X7779511Y5060238D01*
X7784591Y5054904D01*
X7789925Y5044490D01*
X7789925Y5034076D01*
X7784591Y5023662D01*
X7774177Y5008168D01*
X7722361Y4956352D01*
X7795006Y4956352D01*
X7891779Y5065318D02*
G01*
X7839709Y5065318D01*
X7834629Y5018582D01*
X7839709Y5023662D01*
X7855204Y5028996D01*
X7870952Y5028996D01*
X7886445Y5023662D01*
X7896859Y5013502D01*
X7901940Y4997754D01*
X7901940Y4987340D01*
X7896859Y4971846D01*
X7886445Y4961432D01*
X7870952Y4956352D01*
X7855204Y4956352D01*
X7839709Y4961432D01*
X7834629Y4966512D01*
X7829295Y4976926D01*
X12585700Y4328718D02*
G01*
X12585700Y4219752D01*
X12585700Y4219752D02*
G01*
X12647929Y4219752D01*
X12682220Y4328718D02*
G01*
X12682220Y4219752D01*
X12682220Y4328718D02*
G01*
X12749784Y4328718D01*
X12682220Y4276902D02*
G01*
X12723875Y4276902D01*
X12682220Y4219752D02*
G01*
X12749784Y4219752D01*
X12784074Y4328718D02*
G01*
X12784074Y4219752D01*
X12784074Y4328718D02*
G01*
X12820650Y4328718D01*
X12836143Y4323638D01*
X12846558Y4313224D01*
X12851638Y4302810D01*
X12856972Y4287062D01*
X12856972Y4261154D01*
X12851638Y4245660D01*
X12846558Y4235246D01*
X12836143Y4224832D01*
X12820650Y4219752D01*
X12784074Y4219752D01*
X12943077Y4328718D02*
G01*
X12891261Y4256074D01*
X12969240Y4256074D01*
X12943077Y4328718D02*
G01*
X12943077Y4219752D01*
X13034518Y4328718D02*
G01*
X13019024Y4323638D01*
X13008609Y4307890D01*
X13003529Y4281982D01*
X13003529Y4266488D01*
X13008609Y4240326D01*
X13019024Y4224832D01*
X13034518Y4219752D01*
X13044931Y4219752D01*
X13060679Y4224832D01*
X13070840Y4240326D01*
X13076174Y4266488D01*
X13076174Y4281982D01*
X13070840Y4307890D01*
X13060679Y4323638D01*
X13044931Y4328718D01*
X13034518Y4328718D01*
X11874500Y4328718D02*
G01*
X11874500Y4219752D01*
X11874500Y4219752D02*
G01*
X11936729Y4219752D01*
X11971020Y4328718D02*
G01*
X11971020Y4219752D01*
X11971020Y4328718D02*
G01*
X12038584Y4328718D01*
X11971020Y4276902D02*
G01*
X12012675Y4276902D01*
X11971020Y4219752D02*
G01*
X12038584Y4219752D01*
X12072874Y4328718D02*
G01*
X12072874Y4219752D01*
X12072874Y4328718D02*
G01*
X12109450Y4328718D01*
X12124943Y4323638D01*
X12135358Y4313224D01*
X12140438Y4302810D01*
X12145772Y4287062D01*
X12145772Y4261154D01*
X12140438Y4245660D01*
X12135358Y4235246D01*
X12124943Y4224832D01*
X12109450Y4219752D01*
X12072874Y4219752D01*
X12190475Y4328718D02*
G01*
X12247625Y4328718D01*
X12216384Y4287062D01*
X12231877Y4287062D01*
X12242291Y4281982D01*
X12247625Y4276902D01*
X12252706Y4261154D01*
X12252706Y4250740D01*
X12247625Y4235246D01*
X12237211Y4224832D01*
X12221463Y4219752D01*
X12205970Y4219752D01*
X12190475Y4224832D01*
X12185141Y4229912D01*
X12180061Y4240326D01*
X12354559Y4292396D02*
G01*
X12349479Y4276902D01*
X12339065Y4266488D01*
X12323318Y4261154D01*
X12318238Y4261154D01*
X12302490Y4266488D01*
X12292329Y4276902D01*
X12286995Y4292396D01*
X12286995Y4297476D01*
X12292329Y4313224D01*
X12302490Y4323638D01*
X12318238Y4328718D01*
X12323318Y4328718D01*
X12339065Y4323638D01*
X12349479Y4313224D01*
X12354559Y4292396D01*
X12354559Y4266488D01*
X12349479Y4240326D01*
X12339065Y4224832D01*
X12323318Y4219752D01*
X12312904Y4219752D01*
X12297409Y4224832D01*
X12292329Y4235246D01*
X11150600Y4328718D02*
G01*
X11150600Y4219752D01*
X11150600Y4219752D02*
G01*
X11212829Y4219752D01*
X11247120Y4328718D02*
G01*
X11247120Y4219752D01*
X11247120Y4328718D02*
G01*
X11314684Y4328718D01*
X11247120Y4276902D02*
G01*
X11288775Y4276902D01*
X11247120Y4219752D02*
G01*
X11314684Y4219752D01*
X11348974Y4328718D02*
G01*
X11348974Y4219752D01*
X11348974Y4328718D02*
G01*
X11385550Y4328718D01*
X11401043Y4323638D01*
X11411458Y4313224D01*
X11416538Y4302810D01*
X11421872Y4287062D01*
X11421872Y4261154D01*
X11416538Y4245660D01*
X11411458Y4235246D01*
X11401043Y4224832D01*
X11385550Y4219752D01*
X11348974Y4219752D01*
X11466575Y4328718D02*
G01*
X11523725Y4328718D01*
X11492484Y4287062D01*
X11507977Y4287062D01*
X11518391Y4281982D01*
X11523725Y4276902D01*
X11528806Y4261154D01*
X11528806Y4250740D01*
X11523725Y4235246D01*
X11513311Y4224832D01*
X11497563Y4219752D01*
X11482070Y4219752D01*
X11466575Y4224832D01*
X11461241Y4229912D01*
X11456161Y4240326D01*
X11589004Y4328718D02*
G01*
X11573509Y4323638D01*
X11568429Y4313224D01*
X11568429Y4302810D01*
X11573509Y4292396D01*
X11583924Y4287062D01*
X11604752Y4281982D01*
X11620245Y4276902D01*
X11630659Y4266488D01*
X11635740Y4256074D01*
X11635740Y4240326D01*
X11630659Y4229912D01*
X11625579Y4224832D01*
X11609831Y4219752D01*
X11589004Y4219752D01*
X11573509Y4224832D01*
X11568429Y4229912D01*
X11563095Y4240326D01*
X11563095Y4256074D01*
X11568429Y4266488D01*
X11578590Y4276902D01*
X11594338Y4281982D01*
X11615165Y4287062D01*
X11625579Y4292396D01*
X11630659Y4302810D01*
X11630659Y4313224D01*
X11625579Y4323638D01*
X11609831Y4328718D01*
X11589004Y4328718D01*
X10414000Y4328718D02*
G01*
X10414000Y4219752D01*
X10414000Y4219752D02*
G01*
X10476229Y4219752D01*
X10510520Y4328718D02*
G01*
X10510520Y4219752D01*
X10510520Y4328718D02*
G01*
X10578084Y4328718D01*
X10510520Y4276902D02*
G01*
X10552175Y4276902D01*
X10510520Y4219752D02*
G01*
X10578084Y4219752D01*
X10612374Y4328718D02*
G01*
X10612374Y4219752D01*
X10612374Y4328718D02*
G01*
X10648950Y4328718D01*
X10664443Y4323638D01*
X10674858Y4313224D01*
X10679938Y4302810D01*
X10685272Y4287062D01*
X10685272Y4261154D01*
X10679938Y4245660D01*
X10674858Y4235246D01*
X10664443Y4224832D01*
X10648950Y4219752D01*
X10612374Y4219752D01*
X10729975Y4328718D02*
G01*
X10787125Y4328718D01*
X10755884Y4287062D01*
X10771377Y4287062D01*
X10781791Y4281982D01*
X10787125Y4276902D01*
X10792206Y4261154D01*
X10792206Y4250740D01*
X10787125Y4235246D01*
X10776711Y4224832D01*
X10760963Y4219752D01*
X10745470Y4219752D01*
X10729975Y4224832D01*
X10724641Y4229912D01*
X10719561Y4240326D01*
X10899140Y4328718D02*
G01*
X10847324Y4219752D01*
X10826495Y4328718D02*
G01*
X10899140Y4328718D01*
X9677400Y4328718D02*
G01*
X9677400Y4219752D01*
X9677400Y4219752D02*
G01*
X9739629Y4219752D01*
X9773920Y4328718D02*
G01*
X9773920Y4219752D01*
X9773920Y4328718D02*
G01*
X9841484Y4328718D01*
X9773920Y4276902D02*
G01*
X9815575Y4276902D01*
X9773920Y4219752D02*
G01*
X9841484Y4219752D01*
X9875774Y4328718D02*
G01*
X9875774Y4219752D01*
X9875774Y4328718D02*
G01*
X9912350Y4328718D01*
X9927843Y4323638D01*
X9938258Y4313224D01*
X9943338Y4302810D01*
X9948672Y4287062D01*
X9948672Y4261154D01*
X9943338Y4245660D01*
X9938258Y4235246D01*
X9927843Y4224832D01*
X9912350Y4219752D01*
X9875774Y4219752D01*
X9993375Y4328718D02*
G01*
X10050525Y4328718D01*
X10019284Y4287062D01*
X10034777Y4287062D01*
X10045191Y4281982D01*
X10050525Y4276902D01*
X10055606Y4261154D01*
X10055606Y4250740D01*
X10050525Y4235246D01*
X10040111Y4224832D01*
X10024363Y4219752D01*
X10008870Y4219752D01*
X9993375Y4224832D01*
X9988041Y4229912D01*
X9982961Y4240326D01*
X10152379Y4313224D02*
G01*
X10147045Y4323638D01*
X10131552Y4328718D01*
X10121138Y4328718D01*
X10105390Y4323638D01*
X10095229Y4307890D01*
X10089895Y4281982D01*
X10089895Y4256074D01*
X10095229Y4235246D01*
X10105390Y4224832D01*
X10121138Y4219752D01*
X10126218Y4219752D01*
X10141965Y4224832D01*
X10152379Y4235246D01*
X10157459Y4250740D01*
X10157459Y4256074D01*
X10152379Y4271568D01*
X10141965Y4281982D01*
X10126218Y4287062D01*
X10121138Y4287062D01*
X10105390Y4281982D01*
X10095229Y4271568D01*
X10089895Y4256074D01*
X8915400Y4328718D02*
G01*
X8915400Y4219752D01*
X8915400Y4219752D02*
G01*
X8977629Y4219752D01*
X9011920Y4328718D02*
G01*
X9011920Y4219752D01*
X9011920Y4328718D02*
G01*
X9079484Y4328718D01*
X9011920Y4276902D02*
G01*
X9053575Y4276902D01*
X9011920Y4219752D02*
G01*
X9079484Y4219752D01*
X9113774Y4328718D02*
G01*
X9113774Y4219752D01*
X9113774Y4328718D02*
G01*
X9150350Y4328718D01*
X9165843Y4323638D01*
X9176258Y4313224D01*
X9181338Y4302810D01*
X9186672Y4287062D01*
X9186672Y4261154D01*
X9181338Y4245660D01*
X9176258Y4235246D01*
X9165843Y4224832D01*
X9150350Y4219752D01*
X9113774Y4219752D01*
X9231375Y4328718D02*
G01*
X9288525Y4328718D01*
X9257284Y4287062D01*
X9272777Y4287062D01*
X9283191Y4281982D01*
X9288525Y4276902D01*
X9293606Y4261154D01*
X9293606Y4250740D01*
X9288525Y4235246D01*
X9278111Y4224832D01*
X9262363Y4219752D01*
X9246870Y4219752D01*
X9231375Y4224832D01*
X9226041Y4229912D01*
X9220961Y4240326D01*
X9390379Y4328718D02*
G01*
X9338309Y4328718D01*
X9333229Y4281982D01*
X9338309Y4287062D01*
X9353804Y4292396D01*
X9369552Y4292396D01*
X9385045Y4287062D01*
X9395459Y4276902D01*
X9400540Y4261154D01*
X9400540Y4250740D01*
X9395459Y4235246D01*
X9385045Y4224832D01*
X9369552Y4219752D01*
X9353804Y4219752D01*
X9338309Y4224832D01*
X9333229Y4229912D01*
X9327895Y4240326D01*
X8166100Y4328718D02*
G01*
X8166100Y4219752D01*
X8166100Y4219752D02*
G01*
X8228329Y4219752D01*
X8262620Y4328718D02*
G01*
X8262620Y4219752D01*
X8262620Y4328718D02*
G01*
X8330184Y4328718D01*
X8262620Y4276902D02*
G01*
X8304275Y4276902D01*
X8262620Y4219752D02*
G01*
X8330184Y4219752D01*
X8364474Y4328718D02*
G01*
X8364474Y4219752D01*
X8364474Y4328718D02*
G01*
X8401050Y4328718D01*
X8416543Y4323638D01*
X8426958Y4313224D01*
X8432038Y4302810D01*
X8437372Y4287062D01*
X8437372Y4261154D01*
X8432038Y4245660D01*
X8426958Y4235246D01*
X8416543Y4224832D01*
X8401050Y4219752D01*
X8364474Y4219752D01*
X8482075Y4328718D02*
G01*
X8539225Y4328718D01*
X8507984Y4287062D01*
X8523477Y4287062D01*
X8533891Y4281982D01*
X8539225Y4276902D01*
X8544306Y4261154D01*
X8544306Y4250740D01*
X8539225Y4235246D01*
X8528811Y4224832D01*
X8513063Y4219752D01*
X8497570Y4219752D01*
X8482075Y4224832D01*
X8476741Y4229912D01*
X8471661Y4240326D01*
X8630665Y4328718D02*
G01*
X8578595Y4256074D01*
X8656574Y4256074D01*
X8630665Y4328718D02*
G01*
X8630665Y4219752D01*
X7416800Y4328718D02*
G01*
X7416800Y4219752D01*
X7416800Y4219752D02*
G01*
X7479029Y4219752D01*
X7513320Y4328718D02*
G01*
X7513320Y4219752D01*
X7513320Y4328718D02*
G01*
X7580884Y4328718D01*
X7513320Y4276902D02*
G01*
X7554975Y4276902D01*
X7513320Y4219752D02*
G01*
X7580884Y4219752D01*
X7615174Y4328718D02*
G01*
X7615174Y4219752D01*
X7615174Y4328718D02*
G01*
X7651750Y4328718D01*
X7667243Y4323638D01*
X7677658Y4313224D01*
X7682738Y4302810D01*
X7688072Y4287062D01*
X7688072Y4261154D01*
X7682738Y4245660D01*
X7677658Y4235246D01*
X7667243Y4224832D01*
X7651750Y4219752D01*
X7615174Y4219752D01*
X7732775Y4328718D02*
G01*
X7789925Y4328718D01*
X7758684Y4287062D01*
X7774177Y4287062D01*
X7784591Y4281982D01*
X7789925Y4276902D01*
X7795006Y4261154D01*
X7795006Y4250740D01*
X7789925Y4235246D01*
X7779511Y4224832D01*
X7763763Y4219752D01*
X7748270Y4219752D01*
X7732775Y4224832D01*
X7727441Y4229912D01*
X7722361Y4240326D01*
X7839709Y4328718D02*
G01*
X7896859Y4328718D01*
X7865618Y4287062D01*
X7881365Y4287062D01*
X7891779Y4281982D01*
X7896859Y4276902D01*
X7901940Y4261154D01*
X7901940Y4250740D01*
X7896859Y4235246D01*
X7886445Y4224832D01*
X7870952Y4219752D01*
X7855204Y4219752D01*
X7839709Y4224832D01*
X7834629Y4229912D01*
X7829295Y4240326D01*
X12585700Y3541318D02*
G01*
X12585700Y3432352D01*
X12585700Y3432352D02*
G01*
X12647929Y3432352D01*
X12682220Y3541318D02*
G01*
X12682220Y3432352D01*
X12682220Y3541318D02*
G01*
X12749784Y3541318D01*
X12682220Y3489502D02*
G01*
X12723875Y3489502D01*
X12682220Y3432352D02*
G01*
X12749784Y3432352D01*
X12784074Y3541318D02*
G01*
X12784074Y3432352D01*
X12784074Y3541318D02*
G01*
X12820650Y3541318D01*
X12836143Y3536238D01*
X12846558Y3525824D01*
X12851638Y3515410D01*
X12856972Y3499662D01*
X12856972Y3473754D01*
X12851638Y3458260D01*
X12846558Y3447846D01*
X12836143Y3437432D01*
X12820650Y3432352D01*
X12784074Y3432352D01*
X12943077Y3541318D02*
G01*
X12891261Y3468674D01*
X12969240Y3468674D01*
X12943077Y3541318D02*
G01*
X12943077Y3432352D01*
X13029438Y3541318D02*
G01*
X13013690Y3536238D01*
X13008609Y3525824D01*
X13008609Y3515410D01*
X13013690Y3504996D01*
X13024104Y3499662D01*
X13044931Y3494582D01*
X13060679Y3489502D01*
X13070840Y3479088D01*
X13076174Y3468674D01*
X13076174Y3452926D01*
X13070840Y3442512D01*
X13065759Y3437432D01*
X13050265Y3432352D01*
X13029438Y3432352D01*
X13013690Y3437432D01*
X13008609Y3442512D01*
X13003529Y3452926D01*
X13003529Y3468674D01*
X13008609Y3479088D01*
X13019024Y3489502D01*
X13034518Y3494582D01*
X13055345Y3499662D01*
X13065759Y3504996D01*
X13070840Y3515410D01*
X13070840Y3525824D01*
X13065759Y3536238D01*
X13050265Y3541318D01*
X13029438Y3541318D01*
X11874500Y3541318D02*
G01*
X11874500Y3432352D01*
X11874500Y3432352D02*
G01*
X11936729Y3432352D01*
X11971020Y3541318D02*
G01*
X11971020Y3432352D01*
X11971020Y3541318D02*
G01*
X12038584Y3541318D01*
X11971020Y3489502D02*
G01*
X12012675Y3489502D01*
X11971020Y3432352D02*
G01*
X12038584Y3432352D01*
X12072874Y3541318D02*
G01*
X12072874Y3432352D01*
X12072874Y3541318D02*
G01*
X12109450Y3541318D01*
X12124943Y3536238D01*
X12135358Y3525824D01*
X12140438Y3515410D01*
X12145772Y3499662D01*
X12145772Y3473754D01*
X12140438Y3458260D01*
X12135358Y3447846D01*
X12124943Y3437432D01*
X12109450Y3432352D01*
X12072874Y3432352D01*
X12231877Y3541318D02*
G01*
X12180061Y3468674D01*
X12258040Y3468674D01*
X12231877Y3541318D02*
G01*
X12231877Y3432352D01*
X12364974Y3541318D02*
G01*
X12312904Y3432352D01*
X12292329Y3541318D02*
G01*
X12364974Y3541318D01*
X11150600Y3541318D02*
G01*
X11150600Y3432352D01*
X11150600Y3432352D02*
G01*
X11212829Y3432352D01*
X11247120Y3541318D02*
G01*
X11247120Y3432352D01*
X11247120Y3541318D02*
G01*
X11314684Y3541318D01*
X11247120Y3489502D02*
G01*
X11288775Y3489502D01*
X11247120Y3432352D02*
G01*
X11314684Y3432352D01*
X11348974Y3541318D02*
G01*
X11348974Y3432352D01*
X11348974Y3541318D02*
G01*
X11385550Y3541318D01*
X11401043Y3536238D01*
X11411458Y3525824D01*
X11416538Y3515410D01*
X11421872Y3499662D01*
X11421872Y3473754D01*
X11416538Y3458260D01*
X11411458Y3447846D01*
X11401043Y3437432D01*
X11385550Y3432352D01*
X11348974Y3432352D01*
X11507977Y3541318D02*
G01*
X11456161Y3468674D01*
X11534140Y3468674D01*
X11507977Y3541318D02*
G01*
X11507977Y3432352D01*
X11630659Y3525824D02*
G01*
X11625579Y3536238D01*
X11609831Y3541318D01*
X11599418Y3541318D01*
X11583924Y3536238D01*
X11573509Y3520490D01*
X11568429Y3494582D01*
X11568429Y3468674D01*
X11573509Y3447846D01*
X11583924Y3437432D01*
X11599418Y3432352D01*
X11604752Y3432352D01*
X11620245Y3437432D01*
X11630659Y3447846D01*
X11635740Y3463340D01*
X11635740Y3468674D01*
X11630659Y3484168D01*
X11620245Y3494582D01*
X11604752Y3499662D01*
X11599418Y3499662D01*
X11583924Y3494582D01*
X11573509Y3484168D01*
X11568429Y3468674D01*
X10414000Y3541318D02*
G01*
X10414000Y3432352D01*
X10414000Y3432352D02*
G01*
X10476229Y3432352D01*
X10510520Y3541318D02*
G01*
X10510520Y3432352D01*
X10510520Y3541318D02*
G01*
X10578084Y3541318D01*
X10510520Y3489502D02*
G01*
X10552175Y3489502D01*
X10510520Y3432352D02*
G01*
X10578084Y3432352D01*
X10612374Y3541318D02*
G01*
X10612374Y3432352D01*
X10612374Y3541318D02*
G01*
X10648950Y3541318D01*
X10664443Y3536238D01*
X10674858Y3525824D01*
X10679938Y3515410D01*
X10685272Y3499662D01*
X10685272Y3473754D01*
X10679938Y3458260D01*
X10674858Y3447846D01*
X10664443Y3437432D01*
X10648950Y3432352D01*
X10612374Y3432352D01*
X10771377Y3541318D02*
G01*
X10719561Y3468674D01*
X10797540Y3468674D01*
X10771377Y3541318D02*
G01*
X10771377Y3432352D01*
X10894059Y3541318D02*
G01*
X10841990Y3541318D01*
X10836909Y3494582D01*
X10841990Y3499662D01*
X10857738Y3504996D01*
X10873231Y3504996D01*
X10888979Y3499662D01*
X10899140Y3489502D01*
X10904474Y3473754D01*
X10904474Y3463340D01*
X10899140Y3447846D01*
X10888979Y3437432D01*
X10873231Y3432352D01*
X10857738Y3432352D01*
X10841990Y3437432D01*
X10836909Y3442512D01*
X10831829Y3452926D01*
X9677400Y3541318D02*
G01*
X9677400Y3432352D01*
X9677400Y3432352D02*
G01*
X9739629Y3432352D01*
X9773920Y3541318D02*
G01*
X9773920Y3432352D01*
X9773920Y3541318D02*
G01*
X9841484Y3541318D01*
X9773920Y3489502D02*
G01*
X9815575Y3489502D01*
X9773920Y3432352D02*
G01*
X9841484Y3432352D01*
X9875774Y3541318D02*
G01*
X9875774Y3432352D01*
X9875774Y3541318D02*
G01*
X9912350Y3541318D01*
X9927843Y3536238D01*
X9938258Y3525824D01*
X9943338Y3515410D01*
X9948672Y3499662D01*
X9948672Y3473754D01*
X9943338Y3458260D01*
X9938258Y3447846D01*
X9927843Y3437432D01*
X9912350Y3432352D01*
X9875774Y3432352D01*
X10034777Y3541318D02*
G01*
X9982961Y3468674D01*
X10060940Y3468674D01*
X10034777Y3541318D02*
G01*
X10034777Y3432352D01*
X10147045Y3541318D02*
G01*
X10095229Y3468674D01*
X10172954Y3468674D01*
X10147045Y3541318D02*
G01*
X10147045Y3432352D01*
X8915400Y3541318D02*
G01*
X8915400Y3432352D01*
X8915400Y3432352D02*
G01*
X8977629Y3432352D01*
X9011920Y3541318D02*
G01*
X9011920Y3432352D01*
X9011920Y3541318D02*
G01*
X9079484Y3541318D01*
X9011920Y3489502D02*
G01*
X9053575Y3489502D01*
X9011920Y3432352D02*
G01*
X9079484Y3432352D01*
X9113774Y3541318D02*
G01*
X9113774Y3432352D01*
X9113774Y3541318D02*
G01*
X9150350Y3541318D01*
X9165843Y3536238D01*
X9176258Y3525824D01*
X9181338Y3515410D01*
X9186672Y3499662D01*
X9186672Y3473754D01*
X9181338Y3458260D01*
X9176258Y3447846D01*
X9165843Y3437432D01*
X9150350Y3432352D01*
X9113774Y3432352D01*
X9272777Y3541318D02*
G01*
X9220961Y3468674D01*
X9298940Y3468674D01*
X9272777Y3541318D02*
G01*
X9272777Y3432352D01*
X9343390Y3541318D02*
G01*
X9400540Y3541318D01*
X9369552Y3499662D01*
X9385045Y3499662D01*
X9395459Y3494582D01*
X9400540Y3489502D01*
X9405874Y3473754D01*
X9405874Y3463340D01*
X9400540Y3447846D01*
X9390379Y3437432D01*
X9374631Y3432352D01*
X9359138Y3432352D01*
X9343390Y3437432D01*
X9338309Y3442512D01*
X9333229Y3452926D01*
X8166100Y3541318D02*
G01*
X8166100Y3432352D01*
X8166100Y3432352D02*
G01*
X8228329Y3432352D01*
X8262620Y3541318D02*
G01*
X8262620Y3432352D01*
X8262620Y3541318D02*
G01*
X8330184Y3541318D01*
X8262620Y3489502D02*
G01*
X8304275Y3489502D01*
X8262620Y3432352D02*
G01*
X8330184Y3432352D01*
X8364474Y3541318D02*
G01*
X8364474Y3432352D01*
X8364474Y3541318D02*
G01*
X8401050Y3541318D01*
X8416543Y3536238D01*
X8426958Y3525824D01*
X8432038Y3515410D01*
X8437372Y3499662D01*
X8437372Y3473754D01*
X8432038Y3458260D01*
X8426958Y3447846D01*
X8416543Y3437432D01*
X8401050Y3432352D01*
X8364474Y3432352D01*
X8523477Y3541318D02*
G01*
X8471661Y3468674D01*
X8549640Y3468674D01*
X8523477Y3541318D02*
G01*
X8523477Y3432352D01*
X8589009Y3515410D02*
G01*
X8589009Y3520490D01*
X8594090Y3530904D01*
X8599424Y3536238D01*
X8609838Y3541318D01*
X8630665Y3541318D01*
X8641079Y3536238D01*
X8646159Y3530904D01*
X8651240Y3520490D01*
X8651240Y3510076D01*
X8646159Y3499662D01*
X8635745Y3484168D01*
X8583929Y3432352D01*
X8656574Y3432352D01*
X7404100Y3541318D02*
G01*
X7404100Y3432352D01*
X7404100Y3432352D02*
G01*
X7466329Y3432352D01*
X7500620Y3541318D02*
G01*
X7500620Y3432352D01*
X7500620Y3541318D02*
G01*
X7568184Y3541318D01*
X7500620Y3489502D02*
G01*
X7542275Y3489502D01*
X7500620Y3432352D02*
G01*
X7568184Y3432352D01*
X7602474Y3541318D02*
G01*
X7602474Y3432352D01*
X7602474Y3541318D02*
G01*
X7639050Y3541318D01*
X7654543Y3536238D01*
X7664958Y3525824D01*
X7670038Y3515410D01*
X7675372Y3499662D01*
X7675372Y3473754D01*
X7670038Y3458260D01*
X7664958Y3447846D01*
X7654543Y3437432D01*
X7639050Y3432352D01*
X7602474Y3432352D01*
X7761477Y3541318D02*
G01*
X7709661Y3468674D01*
X7787640Y3468674D01*
X7761477Y3541318D02*
G01*
X7761477Y3432352D01*
X7821929Y3520490D02*
G01*
X7832090Y3525824D01*
X7847838Y3541318D01*
X7847838Y3432352D01*
X2286000Y2629915D02*
G01*
X2286000Y2520950D01*
X2286000Y2629915D02*
G01*
X2332736Y2629915D01*
X2348229Y2624836D01*
X2353563Y2619502D01*
X2358643Y2609087D01*
X2358643Y2598673D01*
X2353563Y2588260D01*
X2348229Y2583179D01*
X2332736Y2578100D01*
X2286000Y2578100D01*
X2322322Y2578100D02*
G01*
X2358643Y2520950D01*
X2392934Y2629915D02*
G01*
X2392934Y2520950D01*
X2392934Y2629915D02*
G01*
X2465831Y2520950D01*
X2465831Y2629915D02*
G01*
X2465831Y2520950D01*
X2500122Y2609087D02*
G01*
X2510536Y2614421D01*
X2526029Y2629915D01*
X2526029Y2520950D01*
X2286000Y1918715D02*
G01*
X2286000Y1809750D01*
X2286000Y1918715D02*
G01*
X2332736Y1918715D01*
X2348229Y1913636D01*
X2353563Y1908302D01*
X2358643Y1897887D01*
X2358643Y1887473D01*
X2353563Y1877060D01*
X2348229Y1871979D01*
X2332736Y1866900D01*
X2286000Y1866900D01*
X2322322Y1866900D02*
G01*
X2358643Y1809750D01*
X2392934Y1918715D02*
G01*
X2392934Y1809750D01*
X2392934Y1918715D02*
G01*
X2465831Y1809750D01*
X2465831Y1918715D02*
G01*
X2465831Y1809750D01*
X2505202Y1892807D02*
G01*
X2505202Y1897887D01*
X2510536Y1908302D01*
X2515615Y1913636D01*
X2526029Y1918715D01*
X2546858Y1918715D01*
X2557272Y1913636D01*
X2562352Y1908302D01*
X2567686Y1897887D01*
X2567686Y1887473D01*
X2562352Y1877060D01*
X2551938Y1861565D01*
X2500122Y1809750D01*
X2572765Y1809750D01*
X6896100Y2629915D02*
G01*
X6896100Y2520950D01*
X6896100Y2629915D02*
G01*
X6942836Y2629915D01*
X6958329Y2624836D01*
X6963663Y2619502D01*
X6968743Y2609087D01*
X6968743Y2598673D01*
X6963663Y2588260D01*
X6958329Y2583179D01*
X6942836Y2578100D01*
X6896100Y2578100D01*
X6932422Y2578100D02*
G01*
X6968743Y2520950D01*
X7003034Y2629915D02*
G01*
X7003034Y2520950D01*
X7003034Y2629915D02*
G01*
X7075931Y2520950D01*
X7075931Y2629915D02*
G01*
X7075931Y2520950D01*
X7120636Y2629915D02*
G01*
X7177786Y2629915D01*
X7146543Y2588260D01*
X7162038Y2588260D01*
X7172452Y2583179D01*
X7177786Y2578100D01*
X7182865Y2562352D01*
X7182865Y2551937D01*
X7177786Y2536444D01*
X7167372Y2526029D01*
X7151624Y2520950D01*
X7136129Y2520950D01*
X7120636Y2526029D01*
X7115302Y2531110D01*
X7110222Y2541523D01*
X6896100Y1944115D02*
G01*
X6896100Y1835150D01*
X6896100Y1944115D02*
G01*
X6942836Y1944115D01*
X6958329Y1939036D01*
X6963663Y1933702D01*
X6968743Y1923287D01*
X6968743Y1912873D01*
X6963663Y1902460D01*
X6958329Y1897379D01*
X6942836Y1892300D01*
X6896100Y1892300D01*
X6932422Y1892300D02*
G01*
X6968743Y1835150D01*
X7003034Y1944115D02*
G01*
X7003034Y1835150D01*
X7003034Y1944115D02*
G01*
X7075931Y1835150D01*
X7075931Y1944115D02*
G01*
X7075931Y1835150D01*
X7162038Y1944115D02*
G01*
X7110222Y1871471D01*
X7188200Y1871471D01*
X7162038Y1944115D02*
G01*
X7162038Y1835150D01*
X11607800Y2629915D02*
G01*
X11607800Y2520950D01*
X11607800Y2629915D02*
G01*
X11654536Y2629915D01*
X11670029Y2624836D01*
X11675363Y2619502D01*
X11680443Y2609087D01*
X11680443Y2598673D01*
X11675363Y2588260D01*
X11670029Y2583179D01*
X11654536Y2578100D01*
X11607800Y2578100D01*
X11644122Y2578100D02*
G01*
X11680443Y2520950D01*
X11714734Y2629915D02*
G01*
X11714734Y2520950D01*
X11714734Y2629915D02*
G01*
X11787631Y2520950D01*
X11787631Y2629915D02*
G01*
X11787631Y2520950D01*
X11884152Y2629915D02*
G01*
X11832336Y2629915D01*
X11827002Y2583179D01*
X11832336Y2588260D01*
X11847829Y2593594D01*
X11863324Y2593594D01*
X11879072Y2588260D01*
X11889486Y2578100D01*
X11894565Y2562352D01*
X11894565Y2551937D01*
X11889486Y2536444D01*
X11879072Y2526029D01*
X11863324Y2520950D01*
X11847829Y2520950D01*
X11832336Y2526029D01*
X11827002Y2531110D01*
X11821922Y2541523D01*
X11607800Y1944115D02*
G01*
X11607800Y1835150D01*
X11607800Y1944115D02*
G01*
X11654536Y1944115D01*
X11670029Y1939036D01*
X11675363Y1933702D01*
X11680443Y1923287D01*
X11680443Y1912873D01*
X11675363Y1902460D01*
X11670029Y1897379D01*
X11654536Y1892300D01*
X11607800Y1892300D01*
X11644122Y1892300D02*
G01*
X11680443Y1835150D01*
X11714734Y1944115D02*
G01*
X11714734Y1835150D01*
X11714734Y1944115D02*
G01*
X11787631Y1835150D01*
X11787631Y1944115D02*
G01*
X11787631Y1835150D01*
X11884152Y1928621D02*
G01*
X11879072Y1939036D01*
X11863324Y1944115D01*
X11852909Y1944115D01*
X11837415Y1939036D01*
X11827002Y1923287D01*
X11821922Y1897379D01*
X11821922Y1871471D01*
X11827002Y1850644D01*
X11837415Y1840229D01*
X11852909Y1835150D01*
X11858243Y1835150D01*
X11873738Y1840229D01*
X11884152Y1850644D01*
X11889486Y1866137D01*
X11889486Y1871471D01*
X11884152Y1886965D01*
X11873738Y1897379D01*
X11858243Y1902460D01*
X11852909Y1902460D01*
X11837415Y1897379D01*
X11827002Y1886965D01*
X11821922Y1871471D01*
D10*
X1097899Y7028299D02*
G01*
X1128786Y7028299D01*
X1335013Y7028299D02*
G01*
X1399367Y7028299D01*
X1572432Y7028299D02*
G01*
X1653367Y7028299D01*
X1826432Y7028299D02*
G01*
X1907367Y7028299D01*
X2080432Y7028299D02*
G01*
X2161367Y7028299D01*
X2334432Y7028299D02*
G01*
X2415367Y7028299D01*
X2588432Y7028299D02*
G01*
X2669367Y7028299D01*
X2842432Y7028299D02*
G01*
X2923367Y7028299D01*
X3096432Y7028299D02*
G01*
X3177367Y7028299D01*
X3350399Y7028299D02*
G01*
X3397900Y7028299D01*
X3397900Y7678300D02*
G01*
X3397900Y7028299D01*
X3397900Y7678300D02*
G01*
X3350432Y7678300D01*
X3177367Y7678300D02*
G01*
X3096432Y7678300D01*
X2923367Y7678300D02*
G01*
X2842432Y7678300D01*
X2669367Y7678300D02*
G01*
X2588432Y7678300D01*
X2415367Y7678300D02*
G01*
X2334432Y7678300D01*
X2161367Y7678300D02*
G01*
X2080432Y7678300D01*
X1907367Y7678300D02*
G01*
X1826432Y7678300D01*
X1653367Y7678300D02*
G01*
X1572432Y7678300D01*
X1399367Y7678300D02*
G01*
X1318432Y7678300D01*
X1145367Y7678300D02*
G01*
X1097899Y7678300D01*
X1097899Y7678300D02*
G01*
X1097899Y7416800D01*
X1097899Y7028299D02*
G01*
X1097899Y7289800D01*
X4361799Y7028299D02*
G01*
X4392686Y7028299D01*
X4598913Y7028299D02*
G01*
X4663267Y7028299D01*
X4836332Y7028299D02*
G01*
X4917267Y7028299D01*
X5090332Y7028299D02*
G01*
X5171267Y7028299D01*
X5344332Y7028299D02*
G01*
X5425267Y7028299D01*
X5598332Y7028299D02*
G01*
X5679267Y7028299D01*
X5852332Y7028299D02*
G01*
X5933267Y7028299D01*
X6106332Y7028299D02*
G01*
X6187267Y7028299D01*
X6360332Y7028299D02*
G01*
X6441267Y7028299D01*
X6614299Y7028299D02*
G01*
X6661800Y7028299D01*
X6661800Y7678300D02*
G01*
X6661800Y7028299D01*
X6661800Y7678300D02*
G01*
X6614332Y7678300D01*
X6441267Y7678300D02*
G01*
X6360332Y7678300D01*
X6187267Y7678300D02*
G01*
X6106332Y7678300D01*
X5933267Y7678300D02*
G01*
X5852332Y7678300D01*
X5679267Y7678300D02*
G01*
X5598332Y7678300D01*
X5425267Y7678300D02*
G01*
X5344332Y7678300D01*
X5171267Y7678300D02*
G01*
X5090332Y7678300D01*
X4917267Y7678300D02*
G01*
X4836332Y7678300D01*
X4663267Y7678300D02*
G01*
X4582332Y7678300D01*
X4409267Y7678300D02*
G01*
X4361799Y7678300D01*
X4361799Y7678300D02*
G01*
X4361799Y7416800D01*
X4361799Y7028299D02*
G01*
X4361799Y7289800D01*
X7155799Y7028299D02*
G01*
X7186686Y7028299D01*
X7392913Y7028299D02*
G01*
X7457267Y7028299D01*
X7630332Y7028299D02*
G01*
X7711267Y7028299D01*
X7884332Y7028299D02*
G01*
X7965267Y7028299D01*
X8138332Y7028299D02*
G01*
X8219267Y7028299D01*
X8392332Y7028299D02*
G01*
X8473267Y7028299D01*
X8646332Y7028299D02*
G01*
X8727267Y7028299D01*
X8900332Y7028299D02*
G01*
X8981267Y7028299D01*
X9154332Y7028299D02*
G01*
X9235267Y7028299D01*
X9408299Y7028299D02*
G01*
X9455800Y7028299D01*
X9455800Y7678300D02*
G01*
X9455800Y7028299D01*
X9455800Y7678300D02*
G01*
X9408332Y7678300D01*
X9235267Y7678300D02*
G01*
X9154332Y7678300D01*
X8981267Y7678300D02*
G01*
X8900332Y7678300D01*
X8727267Y7678300D02*
G01*
X8646332Y7678300D01*
X8473267Y7678300D02*
G01*
X8392332Y7678300D01*
X8219267Y7678300D02*
G01*
X8138332Y7678300D01*
X7965267Y7678300D02*
G01*
X7884332Y7678300D01*
X7711267Y7678300D02*
G01*
X7630332Y7678300D01*
X7457267Y7678300D02*
G01*
X7376332Y7678300D01*
X7203267Y7678300D02*
G01*
X7155799Y7678300D01*
X7155799Y7678300D02*
G01*
X7155799Y7416800D01*
X7155799Y7028299D02*
G01*
X7155799Y7289800D01*
X9009999Y5567799D02*
G01*
X9040886Y5567799D01*
X9247113Y5567799D02*
G01*
X9311467Y5567799D01*
X9484532Y5567799D02*
G01*
X9565467Y5567799D01*
X9738532Y5567799D02*
G01*
X9819467Y5567799D01*
X9992532Y5567799D02*
G01*
X10073467Y5567799D01*
X10246532Y5567799D02*
G01*
X10327467Y5567799D01*
X10500532Y5567799D02*
G01*
X10581467Y5567799D01*
X10754532Y5567799D02*
G01*
X10835467Y5567799D01*
X11008532Y5567799D02*
G01*
X11089467Y5567799D01*
X11262499Y5567799D02*
G01*
X11310000Y5567799D01*
X11310000Y6217800D02*
G01*
X11310000Y5567799D01*
X11310000Y6217800D02*
G01*
X11262532Y6217800D01*
X11089467Y6217800D02*
G01*
X11008532Y6217800D01*
X10835467Y6217800D02*
G01*
X10754532Y6217800D01*
X10581467Y6217800D02*
G01*
X10500532Y6217800D01*
X10327467Y6217800D02*
G01*
X10246532Y6217800D01*
X10073467Y6217800D02*
G01*
X9992532Y6217800D01*
X9819467Y6217800D02*
G01*
X9738532Y6217800D01*
X9565467Y6217800D02*
G01*
X9484532Y6217800D01*
X9311467Y6217800D02*
G01*
X9230532Y6217800D01*
X9057467Y6217800D02*
G01*
X9009999Y6217800D01*
X9009999Y6217800D02*
G01*
X9009999Y5956300D01*
X9009999Y5567799D02*
G01*
X9009999Y5829300D01*
X10660999Y7028299D02*
G01*
X10691886Y7028299D01*
X10898113Y7028299D02*
G01*
X10962467Y7028299D01*
X11135532Y7028299D02*
G01*
X11216467Y7028299D01*
X11389532Y7028299D02*
G01*
X11470467Y7028299D01*
X11643532Y7028299D02*
G01*
X11724467Y7028299D01*
X11897532Y7028299D02*
G01*
X11978467Y7028299D01*
X12151532Y7028299D02*
G01*
X12232467Y7028299D01*
X12405532Y7028299D02*
G01*
X12486467Y7028299D01*
X12659532Y7028299D02*
G01*
X12740467Y7028299D01*
X12913499Y7028299D02*
G01*
X12961000Y7028299D01*
X12961000Y7678300D02*
G01*
X12961000Y7028299D01*
X12961000Y7678300D02*
G01*
X12913532Y7678300D01*
X12740467Y7678300D02*
G01*
X12659532Y7678300D01*
X12486467Y7678300D02*
G01*
X12405532Y7678300D01*
X12232467Y7678300D02*
G01*
X12151532Y7678300D01*
X11978467Y7678300D02*
G01*
X11897532Y7678300D01*
X11724467Y7678300D02*
G01*
X11643532Y7678300D01*
X11470467Y7678300D02*
G01*
X11389532Y7678300D01*
X11216467Y7678300D02*
G01*
X11135532Y7678300D01*
X10962467Y7678300D02*
G01*
X10881532Y7678300D01*
X10708467Y7678300D02*
G01*
X10660999Y7678300D01*
X10660999Y7678300D02*
G01*
X10660999Y7416800D01*
X10660999Y7028299D02*
G01*
X10660999Y7289800D01*
X2545699Y5555099D02*
G01*
X2576586Y5555099D01*
X2782813Y5555099D02*
G01*
X2847167Y5555099D01*
X3020232Y5555099D02*
G01*
X3101167Y5555099D01*
X3274232Y5555099D02*
G01*
X3355167Y5555099D01*
X3528232Y5555099D02*
G01*
X3609167Y5555099D01*
X3782232Y5555099D02*
G01*
X3863167Y5555099D01*
X4036232Y5555099D02*
G01*
X4117167Y5555099D01*
X4290232Y5555099D02*
G01*
X4371167Y5555099D01*
X4544232Y5555099D02*
G01*
X4625167Y5555099D01*
X4798199Y5555099D02*
G01*
X4845700Y5555099D01*
X4845700Y6205100D02*
G01*
X4845700Y5555099D01*
X4845700Y6205100D02*
G01*
X4798232Y6205100D01*
X4625167Y6205100D02*
G01*
X4544232Y6205100D01*
X4371167Y6205100D02*
G01*
X4290232Y6205100D01*
X4117167Y6205100D02*
G01*
X4036232Y6205100D01*
X3863167Y6205100D02*
G01*
X3782232Y6205100D01*
X3609167Y6205100D02*
G01*
X3528232Y6205100D01*
X3355167Y6205100D02*
G01*
X3274232Y6205100D01*
X3101167Y6205100D02*
G01*
X3020232Y6205100D01*
X2847167Y6205100D02*
G01*
X2766232Y6205100D01*
X2593167Y6205100D02*
G01*
X2545699Y6205100D01*
X2545699Y6205100D02*
G01*
X2545699Y5943600D01*
X2545699Y5555099D02*
G01*
X2545699Y5816600D01*
X965200Y8864600D02*
G01*
X965200Y9372600D01*
X6045200Y9372600D01*
X6045200Y8864600D01*
X965200Y8864600D01*
X965200Y9118600D02*
G01*
X1219200Y9118600D01*
X1219200Y8864600D01*
X8153400Y8864600D02*
G01*
X8153400Y9372600D01*
X13233400Y9372600D01*
X13233400Y8864600D01*
X8153400Y8864600D01*
X8153400Y9118600D02*
G01*
X8407400Y9118600D01*
X8407400Y8864600D01*
X1368600Y4463303D02*
G01*
X1628599Y4463303D01*
X2067100Y4463303D02*
G01*
X2327099Y4463303D01*
X2765600Y4463303D02*
G01*
X3025599Y4463303D01*
X3464100Y4463303D02*
G01*
X3724099Y4463303D01*
X4149900Y4463303D02*
G01*
X4409899Y4463303D01*
X4823000Y4463303D02*
G01*
X5082999Y4463303D01*
X5483400Y4463303D02*
G01*
X5743399Y4463303D01*
X6131100Y4463303D02*
G01*
X6391099Y4463303D01*
X6131100Y3726703D02*
G01*
X6391099Y3726703D01*
X5483400Y3726703D02*
G01*
X5743399Y3726703D01*
X4823000Y3726703D02*
G01*
X5082999Y3726703D01*
X4149900Y3726703D02*
G01*
X4409899Y3726703D01*
X3464100Y3726703D02*
G01*
X3724099Y3726703D01*
X2765600Y3726703D02*
G01*
X3025599Y3726703D01*
X2067100Y3726703D02*
G01*
X2327099Y3726703D01*
X1368600Y3726703D02*
G01*
X1628599Y3726703D01*
X6131100Y2939303D02*
G01*
X6391099Y2939303D01*
X5483400Y2939303D02*
G01*
X5743399Y2939303D01*
X4823000Y2939303D02*
G01*
X5082999Y2939303D01*
X4149900Y2939303D02*
G01*
X4409899Y2939303D01*
X3464100Y2939303D02*
G01*
X3724099Y2939303D01*
X2765600Y2939303D02*
G01*
X3025599Y2939303D01*
X2067100Y2939303D02*
G01*
X2327099Y2939303D01*
X1368600Y2939303D02*
G01*
X1628599Y2939303D01*
X12455700Y4463303D02*
G01*
X12715699Y4463303D01*
X11744500Y4463303D02*
G01*
X12004499Y4463303D01*
X11020600Y4463303D02*
G01*
X11280599Y4463303D01*
X10284000Y4463303D02*
G01*
X10543999Y4463303D01*
X9547400Y4463303D02*
G01*
X9807399Y4463303D01*
X8785400Y4463303D02*
G01*
X9045399Y4463303D01*
X8036100Y4463303D02*
G01*
X8296099Y4463303D01*
X7286800Y4463303D02*
G01*
X7546799Y4463303D01*
X12455700Y3726703D02*
G01*
X12715699Y3726703D01*
X11744500Y3726703D02*
G01*
X12004499Y3726703D01*
X11020600Y3726703D02*
G01*
X11280599Y3726703D01*
X10284000Y3726703D02*
G01*
X10543999Y3726703D01*
X9547400Y3726703D02*
G01*
X9807399Y3726703D01*
X8785400Y3726703D02*
G01*
X9045399Y3726703D01*
X8036100Y3726703D02*
G01*
X8296099Y3726703D01*
X7286800Y3726703D02*
G01*
X7546799Y3726703D01*
X12455700Y2939303D02*
G01*
X12715699Y2939303D01*
X11744500Y2939303D02*
G01*
X12004499Y2939303D01*
X11020600Y2939303D02*
G01*
X11280599Y2939303D01*
X10284000Y2939303D02*
G01*
X10543999Y2939303D01*
X9547400Y2939303D02*
G01*
X9807399Y2939303D01*
X8785400Y2939303D02*
G01*
X9045399Y2939303D01*
X8036100Y2939303D02*
G01*
X8296099Y2939303D01*
X7274100Y2939303D02*
G01*
X7534099Y2939303D01*
X1021699Y2174100D02*
G01*
X1021699Y2474099D01*
X3575700Y2174100D02*
G01*
X1021699Y2174100D01*
X1021699Y2474099D02*
G01*
X3575700Y2474099D01*
X3575700Y2174100D01*
X1021699Y1462900D02*
G01*
X1021699Y1762899D01*
X3575700Y1462900D02*
G01*
X1021699Y1462900D01*
X1021699Y1762899D02*
G01*
X3575700Y1762899D01*
X3575700Y1462900D01*
X5631799Y2174100D02*
G01*
X5631799Y2474099D01*
X8185800Y2174100D02*
G01*
X5631799Y2174100D01*
X5631799Y2474099D02*
G01*
X8185800Y2474099D01*
X8185800Y2174100D01*
X5631799Y1488300D02*
G01*
X5631799Y1788299D01*
X8185800Y1488300D02*
G01*
X5631799Y1488300D01*
X5631799Y1788299D02*
G01*
X8185800Y1788299D01*
X8185800Y1488300D01*
X10343499Y2174100D02*
G01*
X10343499Y2474099D01*
X12897500Y2174100D02*
G01*
X10343499Y2174100D01*
X10343499Y2474099D02*
G01*
X12897500Y2474099D01*
X12897500Y2174100D01*
X10343499Y1488300D02*
G01*
X10343499Y1788299D01*
X12897500Y1488300D02*
G01*
X10343499Y1488300D01*
X10343499Y1788299D02*
G01*
X12897500Y1788299D01*
X12897500Y1488300D01*
D19*
G75*
G01*
X1160780Y7188200D02*
G03*
X1160780Y7188708I29999J254D01*
D20*
G75*
G01*
X1089406Y6972300D02*
G03*
X1089406Y6972554I12499J127D01*
D10*
G75*
G01*
X1097900Y7416800D02*
G02*
X1097788Y7289800I-56J-63500D01*
D19*
G75*
G01*
X4424680Y7188200D02*
G03*
X4424680Y7188708I29999J254D01*
D20*
G75*
G01*
X4353306Y6972300D02*
G03*
X4353306Y6972554I12499J127D01*
D10*
G75*
G01*
X4361800Y7416800D02*
G02*
X4361688Y7289800I-56J-63500D01*
D19*
G75*
G01*
X7218680Y7188200D02*
G03*
X7218680Y7188708I29999J254D01*
D20*
G75*
G01*
X7147306Y6972300D02*
G03*
X7147306Y6972554I12499J127D01*
D10*
G75*
G01*
X7155800Y7416800D02*
G02*
X7155688Y7289800I-56J-63500D01*
D19*
G75*
G01*
X9072880Y5727700D02*
G03*
X9072880Y5728208I29999J254D01*
D20*
G75*
G01*
X9001506Y5511800D02*
G03*
X9001506Y5512054I12499J127D01*
D10*
G75*
G01*
X9010000Y5956300D02*
G02*
X9009888Y5829300I-56J-63500D01*
D19*
G75*
G01*
X10723880Y7188200D02*
G03*
X10723880Y7188708I29999J254D01*
D20*
G75*
G01*
X10652506Y6972300D02*
G03*
X10652506Y6972554I12499J127D01*
D10*
G75*
G01*
X10661000Y7416800D02*
G02*
X10660888Y7289800I-56J-63500D01*
D19*
G75*
G01*
X2608580Y5715000D02*
G03*
X2608580Y5715508I29999J254D01*
D20*
G75*
G01*
X2537206Y5499100D02*
G03*
X2537206Y5499354I12499J127D01*
D10*
G75*
G01*
X2545700Y5943600D02*
G02*
X2545588Y5816600I-56J-63500D01*
G75*
G01*
X1636776Y4466133D02*
G03*
X1360424Y4466133I-138176J220244D01*
G75*
G01*
X2335276Y4466133D02*
G03*
X2058924Y4466133I-138176J220244D01*
G75*
G01*
X3033776Y4466133D02*
G03*
X2757424Y4466133I-138176J220244D01*
G75*
G01*
X3732276Y4466133D02*
G03*
X3455924Y4466133I-138176J220244D01*
G75*
G01*
X4418076Y4466133D02*
G03*
X4141724Y4466133I-138176J220244D01*
G75*
G01*
X5091176Y4466133D02*
G03*
X4814824Y4466133I-138176J220244D01*
G75*
G01*
X5751576Y4466133D02*
G03*
X5475224Y4466133I-138176J220244D01*
G75*
G01*
X6399276Y4466133D02*
G03*
X6122924Y4466133I-138176J220244D01*
G75*
G01*
X6399276Y3729533D02*
G03*
X6122924Y3729533I-138176J220244D01*
G75*
G01*
X5751576Y3729533D02*
G03*
X5475224Y3729533I-138176J220244D01*
G75*
G01*
X5091176Y3729533D02*
G03*
X4814824Y3729533I-138176J220244D01*
G75*
G01*
X4418076Y3729533D02*
G03*
X4141724Y3729533I-138176J220244D01*
G75*
G01*
X3732276Y3729533D02*
G03*
X3455924Y3729533I-138176J220244D01*
G75*
G01*
X3033776Y3729533D02*
G03*
X2757424Y3729533I-138176J220244D01*
G75*
G01*
X2335276Y3729533D02*
G03*
X2058924Y3729533I-138176J220244D01*
G75*
G01*
X1636776Y3729533D02*
G03*
X1360424Y3729533I-138176J220244D01*
G75*
G01*
X6399276Y2942133D02*
G03*
X6122924Y2942133I-138176J220244D01*
G75*
G01*
X5751576Y2942133D02*
G03*
X5475224Y2942133I-138176J220244D01*
G75*
G01*
X5091176Y2942133D02*
G03*
X4814824Y2942133I-138176J220244D01*
G75*
G01*
X4418076Y2942133D02*
G03*
X4141724Y2942133I-138176J220244D01*
G75*
G01*
X3732276Y2942133D02*
G03*
X3455924Y2942133I-138176J220244D01*
G75*
G01*
X3033776Y2942133D02*
G03*
X2757424Y2942133I-138176J220244D01*
G75*
G01*
X2335276Y2942133D02*
G03*
X2058924Y2942133I-138176J220244D01*
G75*
G01*
X1636776Y2942133D02*
G03*
X1360424Y2942133I-138176J220244D01*
G75*
G01*
X12723876Y4466133D02*
G03*
X12447524Y4466133I-138176J220244D01*
G75*
G01*
X12012676Y4466133D02*
G03*
X11736324Y4466133I-138176J220244D01*
G75*
G01*
X11288776Y4466133D02*
G03*
X11012424Y4466133I-138176J220244D01*
G75*
G01*
X10552176Y4466133D02*
G03*
X10275824Y4466133I-138176J220244D01*
G75*
G01*
X9815576Y4466133D02*
G03*
X9539224Y4466133I-138176J220244D01*
G75*
G01*
X9053576Y4466133D02*
G03*
X8777224Y4466133I-138176J220244D01*
G75*
G01*
X8304276Y4466133D02*
G03*
X8027924Y4466133I-138176J220244D01*
G75*
G01*
X7554976Y4466133D02*
G03*
X7278624Y4466133I-138176J220244D01*
G75*
G01*
X12723876Y3729533D02*
G03*
X12447524Y3729533I-138176J220244D01*
G75*
G01*
X12012676Y3729533D02*
G03*
X11736324Y3729533I-138176J220244D01*
G75*
G01*
X11288776Y3729533D02*
G03*
X11012424Y3729533I-138176J220244D01*
G75*
G01*
X10552176Y3729533D02*
G03*
X10275824Y3729533I-138176J220244D01*
G75*
G01*
X9815576Y3729533D02*
G03*
X9539224Y3729533I-138176J220244D01*
G75*
G01*
X9053576Y3729533D02*
G03*
X8777224Y3729533I-138176J220244D01*
G75*
G01*
X8304276Y3729533D02*
G03*
X8027924Y3729533I-138176J220244D01*
G75*
G01*
X7554976Y3729533D02*
G03*
X7278624Y3729533I-138176J220244D01*
G75*
G01*
X12723876Y2942133D02*
G03*
X12447524Y2942133I-138176J220244D01*
G75*
G01*
X12012676Y2942133D02*
G03*
X11736324Y2942133I-138176J220244D01*
G75*
G01*
X11288776Y2942133D02*
G03*
X11012424Y2942133I-138176J220244D01*
G75*
G01*
X10552176Y2942133D02*
G03*
X10275824Y2942133I-138176J220244D01*
G75*
G01*
X9815576Y2942133D02*
G03*
X9539224Y2942133I-138176J220244D01*
G75*
G01*
X9053576Y2942133D02*
G03*
X8777224Y2942133I-138176J220244D01*
G75*
G01*
X8304276Y2942133D02*
G03*
X8027924Y2942133I-138176J220244D01*
G75*
G01*
X7542276Y2942133D02*
G03*
X7265924Y2942133I-138176J220244D01*
M02*
