M48
METRIC,LZ,000.000
;FILE_FORMAT=3:3
;TYPE=PLATED
;Layer: Drill PTH
;EasyEDA v6.4.19.4, 2021-04-30T18:59:06+02:00
;9f706370d961430f8c96474a389d8511,2e57c490b2cc43cca34809fe9e8c30bf,10
;Gerber Generator version 0.2
;Holesize 1 = 0.305 mm
T01C0.305
;Holesize 2 = 0.310 mm
T02C0.310
;Holesize 3 = 0.966 mm
T03C0.966
;Holesize 4 = 1.000 mm
T04C1.000
;Holesize 5 = 1.200 mm
T05C1.200
%
G05
G90
T01
X102870Y020574
X105791Y020574
X099187Y028702
X109601Y028448
X112903Y033401
X112522Y032004
T02
X088024Y031560
X091694Y027559
X066924Y034059
X072126Y029032
X051328Y025011
X053487Y046893
X062423Y085997
X022662Y060790
X024328Y062423
X025334Y061735
X033330Y066624
X045847Y078699
X047112Y075014
X045278Y088235
X038506Y072370
X042167Y070010
X034961Y068829
X042388Y056418
X039263Y046134
X037094Y043932
X033089Y041753
X122923Y067716
X108852Y087991
X100856Y076457
X120076Y088389
X101724Y077866
X128204Y072189
X077018Y029614
X086439Y035131
X094402Y044900
X102438Y074983
X109309Y032449
X113980Y034120
X121036Y068344
X116106Y031773
X099743Y047490
X103873Y074046
X104948Y087945
X087536Y055148
X107221Y093861
X111653Y087478
X106401Y087018
X087765Y054026
X099421Y051930
X112070Y088407
X103513Y063955
X093980Y044206
X094173Y088041
X122489Y063779
X117686Y058445
X115931Y064397
X110990Y058958
X087625Y051549
X087478Y071603
X047234Y087193
X041910Y087594
X020574Y031750
X059416Y068651
X020846Y086934
X028595Y088224
X018171Y047686
X113767Y065093
X063236Y078616
X046523Y066944
X062804Y067188
X059383Y064336
X056906Y061468
X019263Y048743
T03
X014986Y048133
X014986Y045593
X021971Y048133
X021971Y045593
X028956Y048133
X028956Y045593
X035941Y048133
X035941Y045593
X042799Y048133
X042799Y045593
X049530Y048133
X049530Y045593
X056134Y048133
X056134Y045593
X062611Y048133
X062611Y045593
X062611Y040767
X062611Y038227
X056134Y040767
X056134Y038227
X049530Y040767
X049530Y038227
X042799Y040767
X042799Y038227
X035941Y040767
X035941Y038227
X028956Y040767
X028956Y038227
X021971Y040767
X021971Y038227
X014986Y040767
X014986Y038227
X062611Y032893
X062611Y030353
X056134Y032893
X056134Y030353
X049530Y032893
X049530Y030353
X042799Y032893
X042799Y030353
X035941Y032893
X035941Y030353
X028956Y032893
X028956Y030353
X021971Y032893
X021971Y030353
X014986Y032893
X014986Y030353
X125857Y048133
X125857Y045593
X118745Y048133
X118745Y045593
X111506Y048133
X111506Y045593
X104140Y048133
X104140Y045593
X096774Y048133
X096774Y045593
X089154Y048133
X089154Y045593
X081661Y048133
X081661Y045593
X074168Y048133
X074168Y045593
X125857Y040767
X125857Y038227
X118745Y040767
X118745Y038227
X111506Y040767
X111506Y038227
X104140Y040767
X104140Y038227
X096774Y040767
X096774Y038227
X089154Y040767
X089154Y038227
X081661Y040767
X081661Y038227
X074168Y040767
X074168Y038227
X125857Y032893
X125857Y030353
X118745Y032893
X118745Y030353
X111506Y032893
X111506Y030353
X104140Y032893
X104140Y030353
X096774Y032893
X096774Y030353
X089154Y032893
X089154Y030353
X081661Y032893
X081661Y030353
X074041Y032893
X074041Y030353
T04
X017399Y077343
X019939Y077343
X022479Y077343
X025019Y077343
X027559Y077343
X030099Y077343
X032639Y077343
X032639Y069723
X014859Y077343
X012319Y077343
X030099Y069723
X027559Y069723
X025019Y069723
X022479Y069723
X019939Y069723
X017399Y069723
X014859Y069723
X012319Y069723
X050038Y077343
X052578Y077343
X055118Y077343
X057658Y077343
X060198Y077343
X062738Y077343
X065278Y077343
X065278Y069723
X047498Y077343
X044958Y077343
X062738Y069723
X060198Y069723
X057658Y069723
X055118Y069723
X052578Y069723
X050038Y069723
X047498Y069723
X044958Y069723
X077978Y077343
X080518Y077343
X083058Y077343
X085598Y077343
X088138Y077343
X090678Y077343
X093218Y077343
X093218Y069723
X075438Y077343
X072898Y077343
X090678Y069723
X088138Y069723
X085598Y069723
X083058Y069723
X080518Y069723
X077978Y069723
X075438Y069723
X072898Y069723
X096520Y062738
X099060Y062738
X101600Y062738
X104140Y062738
X106680Y062738
X109220Y062738
X111760Y062738
X111760Y055118
X093980Y062738
X091440Y062738
X109220Y055118
X106680Y055118
X104140Y055118
X101600Y055118
X099060Y055118
X096520Y055118
X093980Y055118
X091440Y055118
X113030Y077343
X115570Y077343
X118110Y077343
X120650Y077343
X123190Y077343
X125730Y077343
X128270Y077343
X128270Y069723
X110490Y077343
X107950Y077343
X125730Y069723
X123190Y069723
X120650Y069723
X118110Y069723
X115570Y069723
X113030Y069723
X110490Y069723
X107950Y069723
X031877Y062611
X034417Y062611
X036957Y062611
X039497Y062611
X042037Y062611
X044577Y062611
X047117Y062611
X047117Y054991
X029337Y062611
X026797Y062611
X044577Y054991
X042037Y054991
X039497Y054991
X036957Y054991
X034417Y054991
X031877Y054991
X029337Y054991
X026797Y054991
X031877Y023241
X029337Y023241
X026797Y023241
X024257Y023241
X021717Y023241
X019177Y023241
X016637Y023241
X014097Y023241
X011557Y023241
X034417Y023241
X031877Y016129
X029337Y016129
X026797Y016129
X024257Y016129
X021717Y016129
X019177Y016129
X016637Y016129
X014097Y016129
X011557Y016129
X034417Y016129
X077978Y023241
X075438Y023241
X072898Y023241
X070358Y023241
X067818Y023241
X065278Y023241
X062738Y023241
X060198Y023241
X057658Y023241
X080518Y023241
X077978Y016383
X075438Y016383
X072898Y016383
X070358Y016383
X067818Y016383
X065278Y016383
X062738Y016383
X060198Y016383
X057658Y016383
X080518Y016383
X125095Y023241
X122555Y023241
X120015Y023241
X117475Y023241
X114935Y023241
X112395Y023241
X109855Y023241
X107315Y023241
X104775Y023241
X127635Y023241
X125095Y016383
X122555Y016383
X120015Y016383
X117475Y016383
X114935Y016383
X112395Y016383
X109855Y016383
X107315Y016383
X104775Y016383
X127635Y016383
T05
X010922Y089916
X010922Y092456
X013462Y089916
X013462Y092456
X016002Y089916
X016002Y092456
X018542Y089916
X018542Y092456
X021082Y089916
X021082Y092456
X023622Y089916
X023622Y092456
X026162Y089916
X026162Y092456
X028702Y089916
X028702Y092456
X031242Y089916
X031242Y092456
X033782Y089916
X033782Y092456
X036322Y089916
X036322Y092456
X038862Y089916
X038862Y092456
X041402Y089916
X041402Y092456
X043942Y089916
X043942Y092456
X046482Y089916
X046482Y092456
X049022Y089916
X049022Y092456
X051562Y089916
X051562Y092456
X054102Y089916
X054102Y092456
X056642Y089916
X056642Y092456
X059182Y089916
X059182Y092456
X082804Y089916
X082804Y092456
X085344Y089916
X085344Y092456
X087884Y089916
X087884Y092456
X090424Y089916
X090424Y092456
X092964Y089916
X092964Y092456
X095504Y089916
X095504Y092456
X098044Y089916
X098044Y092456
X100584Y089916
X100584Y092456
X103124Y089916
X103124Y092456
X105664Y089916
X105664Y092456
X108204Y089916
X108204Y092456
X110744Y089916
X110744Y092456
X113284Y089916
X113284Y092456
X115824Y089916
X115824Y092456
X118364Y089916
X118364Y092456
X120904Y089916
X120904Y092456
X123444Y089916
X123444Y092456
X125984Y089916
X125984Y092456
X128524Y089916
X128524Y092456
X131064Y089916
X131064Y092456
M30
