G04 Layer: TopLayer*
G04 EasyEDA v6.4.19.4, 2021-04-30T18:59:06+02:00*
G04 9f706370d961430f8c96474a389d8511,2e57c490b2cc43cca34809fe9e8c30bf,10*
G04 Gerber Generator version 0.2*
G04 Scale: 100 percent, Rotated: No, Reflected: No *
G04 Dimensions in millimeters *
G04 leading zeros omitted , absolute positions ,4 integer and 5 decimal *
%FSLAX45Y45*%
%MOMM*%

%ADD10C,0.2540*%
%ADD11C,0.2600*%
%ADD12C,0.6100*%
%ADD13C,0.6096*%
%ADD14R,1.6000X1.6000*%
%ADD16C,1.8000*%
%ADD17C,1.6510*%
%ADD18C,1.6000*%

%LPD*%
D11*
X12852400Y8991600D02*
G01*
X12502895Y8642095D01*
X10612627Y8642095D01*
X10520172Y8734552D01*
X5921247Y8734552D01*
X5664200Y8991600D01*
X11874500Y4813300D02*
G01*
X11986259Y4701539D01*
X11986259Y3765295D01*
X11376913Y3155950D01*
X11315700Y3098800D01*
X11175491Y3155950D01*
X8802370Y3155950D01*
D10*
X11290300Y3340100D02*
G01*
X11290300Y3238500D01*
X11252200Y3200400D01*
D11*
X11610593Y3158236D02*
G01*
X11313668Y2861563D01*
X11070336Y2861563D01*
X10947400Y2984500D01*
X10445750Y2984500D01*
X10414000Y3016250D01*
D10*
X9918700Y2870200D02*
G01*
X9944100Y2844800D01*
X10960100Y2844800D01*
D11*
X12585700Y4813300D02*
G01*
X12707106Y4691887D01*
X12707106Y3785107D01*
X12069577Y3147311D01*
X11664950Y3147311D01*
X11286230Y2768600D01*
X9169400Y2768600D01*
X9169400Y2755900D01*
X7416800Y4076700D02*
G01*
X7634986Y4076700D01*
X9565386Y2146300D01*
X10807700Y2146300D01*
X10985500Y2324100D01*
D10*
X10287000Y2057400D02*
G01*
X10579100Y2057400D01*
D11*
X7404100Y3289300D02*
G01*
X7458199Y3289300D01*
X8983723Y1764029D01*
X10859770Y1764029D01*
X10985500Y1638300D01*
X11239500Y1638300D02*
G01*
X11066523Y1811276D01*
X9644123Y1811276D01*
X8166100Y3289300D01*
X6273800Y2324100D02*
G01*
X5781040Y2816860D01*
X1971040Y2816860D01*
X1971040Y2816860D01*
X1498600Y3289300D01*
X6527800Y2324100D02*
G01*
X5973063Y2878836D01*
X2607563Y2878836D01*
X2197100Y3289300D01*
X2895600Y3289300D02*
G01*
X3022600Y3162300D01*
X5862574Y3162300D01*
X6700774Y2324100D01*
X6781800Y2324100D01*
X3594100Y3289300D02*
G01*
X3753104Y3448304D01*
X6649974Y3448304D01*
X6692391Y3405886D01*
X7212584Y2903220D02*
G01*
X6882129Y2903220D01*
X6379463Y3405886D01*
X4396486Y3405886D01*
X4279900Y3289300D01*
X7797800Y2324100D02*
G01*
X7320788Y2801112D01*
X6656324Y2801112D01*
X6295136Y3162300D01*
X5993638Y3162300D01*
X5866638Y3289300D01*
X5613400Y3289300D01*
X8051800Y2324100D02*
G01*
X7532624Y2843276D01*
X6707124Y2843276D01*
X6261100Y3289300D01*
X3441700Y1612900D02*
G01*
X4329938Y2501137D01*
X5132834Y2501137D01*
X6261100Y4813300D02*
G01*
X6137147Y4689347D01*
X5348731Y4689347D01*
X5918200Y9245600D02*
G01*
X6301993Y8861805D01*
X7389875Y8861805D01*
X7480300Y8952229D01*
X7480300Y9033763D01*
X7565136Y9118600D01*
X10366756Y9118600D01*
X10439400Y9191244D01*
X10439400Y9299702D01*
X10631424Y9491726D01*
X12860274Y9491726D01*
X13106400Y9245600D01*
X13106400Y8991600D02*
G01*
X12714477Y8599678D01*
X6242304Y8599678D01*
X2679700Y5499100D02*
G01*
X2679700Y5608320D01*
X2679700Y5608320D02*
G01*
X2266188Y6021831D01*
X2266188Y6078981D01*
X2432811Y6242304D02*
G01*
X2432811Y6189726D01*
X2933700Y5688837D01*
X2933700Y5499100D01*
X2533395Y6173470D02*
G01*
X3187700Y5519420D01*
X3187700Y5499100D01*
X3695700Y5499100D02*
G01*
X3325622Y5869178D01*
X3325622Y6655054D01*
X3332988Y6662420D01*
X4584700Y7869936D02*
G01*
X4607813Y7846821D01*
X4607813Y7604505D01*
X4711191Y7501381D01*
X4648200Y9245600D02*
G01*
X4527804Y9125204D01*
X4527804Y8823452D01*
X3850640Y7236968D02*
G01*
X3980688Y7236968D01*
X4216654Y7001002D01*
X4457700Y5499100D02*
G01*
X4457700Y5689092D01*
X4076700Y6070092D01*
X4076700Y6302247D01*
X3496056Y6882892D01*
X6261100Y3822700D02*
G01*
X6130797Y3822700D01*
X4602479Y5351018D01*
X4602479Y6116320D01*
X4457700Y6261100D01*
X5613400Y3822700D02*
G01*
X5529579Y3822700D01*
X4093209Y5259070D01*
X4093209Y5567934D01*
X4167124Y5641847D01*
X4238752Y5641847D01*
X4953000Y3822700D02*
G01*
X4717034Y3822700D01*
X3926331Y4613402D01*
X4279900Y3822700D02*
G01*
X3709415Y4393184D01*
X3594100Y3822700D02*
G01*
X3308858Y4107942D01*
X3308858Y4175252D01*
X10795000Y6972300D02*
G01*
X10904220Y6972300D01*
X10904220Y6972300D02*
G01*
X10904220Y6944868D01*
X11077447Y6771639D01*
X12292329Y6771639D01*
X11074400Y8991600D02*
G01*
X11074400Y8988297D01*
X10885170Y8799068D01*
X11811000Y6972300D02*
G01*
X11701779Y7081520D01*
X10480040Y7081520D01*
X10085577Y7475981D01*
X10085577Y7645654D01*
X11074400Y9245600D02*
G01*
X11193779Y9126220D01*
X11364213Y9126220D01*
X11455400Y9035034D01*
X11455400Y8935465D01*
X11552174Y8838945D01*
X12007595Y8838945D01*
X10172445Y7786623D02*
G01*
X10172445Y7469378D01*
X10320274Y7321804D01*
X11969495Y7321804D01*
X12319000Y6972300D01*
X12820395Y7218934D02*
G01*
X12819634Y7218934D01*
X12573000Y6972300D01*
X7404100Y3035300D02*
G01*
X7478013Y2961386D01*
X7701788Y2961386D01*
X9440163Y4489957D02*
G01*
X9457690Y4472178D01*
X9457690Y4188713D01*
X8782304Y3513073D01*
X8643874Y3513073D01*
X10243820Y7498334D02*
G01*
X10813034Y7498334D01*
X11049000Y7734300D01*
X10930890Y3244850D02*
G01*
X11097768Y3411981D01*
X11397995Y3411981D01*
X12103608Y6834378D02*
G01*
X12358370Y6834378D01*
X12431268Y6907276D01*
X12431268Y7114031D01*
X11811000Y7734300D01*
X10387329Y7404608D02*
G01*
X10973308Y7404608D01*
X11303000Y7734300D01*
X8915400Y3035300D02*
G01*
X8831834Y3035300D01*
X8731758Y3135376D01*
X8731758Y3301745D01*
X9974325Y4544568D01*
X9974325Y4749037D01*
X12090400Y9245600D02*
G01*
X11971274Y9364726D01*
X11017504Y9364726D01*
X10955274Y9302495D01*
X10955274Y9184131D01*
X10897361Y9126220D01*
X10784586Y9126220D01*
X10693400Y9035034D01*
X10693400Y8939021D01*
X10548874Y8794495D01*
X10494772Y8794495D01*
X8753602Y5514847D02*
G01*
X9031731Y5514847D01*
X9034779Y5511800D01*
X9144000Y5511800D02*
G01*
X9034779Y5511800D01*
X12344400Y9245600D02*
G01*
X12182856Y9407144D01*
X10743184Y9407144D01*
X10722102Y9386062D01*
X12598400Y8991600D02*
G01*
X12333477Y8726678D01*
X11186413Y8726678D01*
X11165331Y8747760D01*
X9942068Y5193029D02*
G01*
X9732518Y5402579D01*
X8776461Y5402579D01*
X12344400Y8991600D02*
G01*
X12463779Y9110726D01*
X12649200Y9110726D01*
X12725400Y9034526D01*
X12725400Y8947658D01*
X12462256Y8684260D01*
X10657586Y8684260D01*
X10640059Y8701786D01*
X10351261Y6395465D02*
G01*
X10299700Y6343904D01*
X10299700Y6224523D01*
X10344404Y6180073D01*
X10344404Y5581395D01*
X10414000Y5511800D01*
X12090400Y8991600D02*
G01*
X12090400Y8831834D01*
X12027408Y8768842D01*
X11278870Y8768842D01*
X11206988Y8840724D01*
X8166100Y3822700D02*
G01*
X8540750Y4197350D01*
X8540750Y5416550D01*
X9398000Y6273800D01*
X10922000Y6273800D02*
G01*
X12070588Y5125212D01*
X12070588Y4337812D01*
X12585700Y3822700D01*
X11874500Y3822700D02*
G01*
X11339068Y4358131D01*
X11339068Y5571489D01*
X10668000Y6242557D01*
X10668000Y6273800D01*
X11150600Y3822700D02*
G01*
X10558779Y4414520D01*
X10558779Y5934710D01*
X10414000Y6079744D01*
X10414000Y6273800D01*
X10414000Y3822700D02*
G01*
X10301986Y3934713D01*
X10301986Y6131813D01*
X10160000Y6273800D01*
X9906000Y6273800D02*
G01*
X10045191Y6134607D01*
X10045191Y4190492D01*
X9677400Y3822700D01*
X8915400Y3822700D02*
G01*
X9398000Y4305300D01*
X9398000Y4420615D01*
X9804400Y8991600D02*
G01*
X9616947Y8804147D01*
X9417304Y8804147D01*
X9067800Y7734300D02*
G01*
X9610597Y7191502D01*
X10178541Y7191502D01*
X10403586Y6966712D01*
X10463275Y6966712D01*
X11045697Y6384289D01*
X11563858Y6384289D01*
X11570208Y6377939D01*
X12248895Y6377939D01*
X11768581Y5844539D02*
G01*
X11437365Y5844539D01*
X11049000Y6232652D01*
X11049000Y6311137D01*
X10435843Y6924294D01*
X10386059Y6924294D01*
X10163302Y7146797D01*
X9401302Y7146797D01*
X8813800Y7734300D01*
X8559800Y7734300D02*
G01*
X8678672Y7853171D01*
X9105391Y7853171D01*
X9179813Y7778750D01*
X9179813Y7721854D01*
X9341611Y7560055D01*
X9869931Y7560055D01*
X10406125Y7023862D01*
X10480547Y7023862D01*
X11064747Y6439662D01*
X11593068Y6439662D01*
X11099038Y5895847D02*
G01*
X10795000Y6199886D01*
X10795000Y6312154D01*
X10092436Y7014718D01*
X9473691Y7014718D01*
X8915400Y7572755D01*
X8467343Y7572755D01*
X8305800Y7734300D01*
X9677400Y4559300D02*
G01*
X9081770Y5154929D01*
X8762491Y5154929D01*
X8051800Y7734300D02*
G01*
X8625840Y7160260D01*
X8747759Y7160260D01*
X4495800Y6972300D02*
G01*
X4495800Y7081520D01*
X4140200Y8991600D02*
G01*
X4127500Y8978900D01*
X4127500Y7449820D01*
X4495800Y7081520D01*
X4140200Y9245600D02*
G01*
X4267200Y9118600D01*
X4267200Y7479537D01*
X4749800Y6996937D01*
X4749800Y6972300D01*
X5003800Y6972300D02*
G01*
X4859020Y7117079D01*
X4859020Y8392921D01*
X4394200Y8857742D01*
X4394200Y8991600D01*
X5257800Y6972300D02*
G01*
X5130800Y7099300D01*
X5130800Y8225536D01*
X4648200Y8708136D01*
X4648200Y8991600D01*
X5511800Y6972300D02*
G01*
X5384800Y7099300D01*
X5384800Y8057895D01*
X4723384Y8719312D01*
X4191000Y8759444D02*
G01*
X4191254Y8759444D01*
X4191254Y7479792D01*
X4632706Y7038086D01*
X4632706Y6924294D01*
X4694936Y6862063D01*
X5655818Y6862063D01*
X5765800Y6972300D01*
X3632200Y9245600D02*
G01*
X3759200Y9118600D01*
X3759200Y7701787D01*
X4323588Y7137145D01*
X4323588Y6941820D01*
X4402327Y6863079D01*
X4568190Y6863079D01*
X4629404Y6802120D01*
X5976874Y6802120D01*
X6019800Y6845045D01*
X6019800Y6972300D01*
X2197100Y3035300D02*
G01*
X2057400Y3175000D01*
X5941568Y6865112D02*
G01*
X5910579Y6895845D01*
X5910579Y7625079D01*
X6019800Y7734300D01*
X1854200Y8991600D02*
G01*
X1735073Y9110726D01*
X980694Y9110726D01*
X959612Y9089897D01*
X959612Y7353808D01*
X1231900Y7081520D01*
X1231900Y6972300D02*
G01*
X1231900Y7081520D01*
X1346200Y8991600D02*
G01*
X1644395Y8693404D01*
X2084577Y8693404D01*
X3124200Y8991600D02*
G01*
X2955290Y8822436D01*
X2859531Y8822436D01*
X2197100Y4559300D02*
G01*
X2026411Y4559300D01*
X1817115Y4768595D01*
X9321800Y6972300D02*
G01*
X9212579Y6863079D01*
X6637020Y6863079D01*
X6527800Y6972300D01*
X4711700Y5499100D02*
G01*
X5171693Y5958839D01*
X1211326Y8991600D02*
G01*
X1211326Y8931910D01*
X2196338Y7946897D01*
X2449322Y7946897D01*
X2628900Y7767320D01*
X2628900Y7700771D01*
X3263900Y7065771D01*
X3263900Y6972300D01*
X1092200Y8991600D02*
G01*
X1211326Y8991600D01*
X11376659Y6509257D02*
G01*
X12363958Y6509257D01*
X12827000Y6972300D01*
X6527800Y6972300D02*
G01*
X6527800Y6881621D01*
X5605272Y5958839D01*
X5171693Y5958839D01*
X5171693Y5958839D02*
G01*
X4437125Y6693408D01*
X4174743Y6693408D01*
X3896106Y6972300D01*
X3263900Y6972300D01*
X9321800Y6972300D02*
G01*
X9878822Y6972300D01*
X10546334Y6304787D01*
X10546334Y6141465D01*
X11176000Y5511800D01*
X10477500Y1638300D02*
G01*
X10368279Y1529079D01*
X5931656Y1529079D01*
X5849614Y1610865D01*
X5849614Y1638300D01*
X10477500Y1638300D02*
G01*
X10477500Y1620514D01*
X10444485Y1587500D01*
X5765800Y1638300D02*
G01*
X5849614Y1638300D01*
X1277620Y1612900D02*
G01*
X1277620Y1585468D01*
X1370076Y1493265D01*
X5486145Y1493265D01*
X5631179Y1638300D01*
X1155700Y1612900D02*
G01*
X1277620Y1612900D01*
X5765800Y1638300D02*
G01*
X5631185Y1638300D01*
X11176000Y6273800D02*
G01*
X12297918Y6273800D01*
X12940791Y6916673D01*
X12940791Y7620508D01*
X12827000Y7734300D01*
X9321800Y7853171D02*
G01*
X9321800Y7734300D01*
X9321800Y7853171D02*
G01*
X12708127Y7853171D01*
X12827000Y7734300D01*
X6527800Y7734300D02*
G01*
X6527800Y7791195D01*
X6323584Y7861554D02*
G01*
X6393941Y7791195D01*
X6527800Y7791195D01*
X6280404Y6718808D02*
G01*
X6256020Y6694423D01*
X4652263Y6694423D01*
X4652263Y6694423D02*
G01*
X4526025Y6820662D01*
X4384802Y6820662D01*
X4281424Y6924294D01*
X4281424Y7020813D01*
X3567684Y7734300D01*
X3263900Y7734300D01*
X6527800Y7791195D02*
G01*
X6631940Y7895336D01*
X9279636Y7895336D01*
X9321800Y7853171D01*
X5938265Y6433565D02*
G01*
X4823206Y6433565D01*
X4478274Y6778497D01*
X4333493Y6778497D01*
X4021074Y7090663D01*
X3653536Y7090663D01*
X3009900Y7734300D01*
X5690615Y6146800D02*
G01*
X5050027Y6146800D01*
X4461256Y6735826D01*
X4199890Y6735826D01*
X3895090Y7040626D01*
X3449574Y7040626D01*
X2755900Y7734300D01*
X2501900Y7734300D02*
G01*
X3136900Y7099300D01*
X3136900Y6939787D01*
X3332988Y6743954D01*
X3381502Y6743954D01*
X3835400Y6290055D01*
X3835400Y6130036D01*
X4330700Y5634989D01*
X4330700Y5181600D01*
X4953000Y4559300D01*
X2247900Y7734300D02*
G01*
X2612897Y7369302D01*
X2612897Y6676136D01*
X2788920Y6500113D01*
X2788920Y6214618D01*
X3316986Y5686805D01*
X3316986Y5387847D01*
X4145534Y4559300D01*
X4279900Y4559300D01*
X3594100Y4559300D02*
G01*
X2799588Y5353812D01*
X2799588Y5763260D01*
X2367788Y6195060D01*
X2367788Y7360412D01*
X1993900Y7734300D01*
X1926336Y4874260D02*
G01*
X2129281Y4671313D01*
X2783586Y4671313D01*
X2895600Y4559300D01*
D14*
G01*
X1231900Y6972300D03*
G01*
X4495800Y6972300D03*
G01*
X7289800Y6972300D03*
G01*
X9144000Y5511800D03*
G01*
X10795000Y6972300D03*
G01*
X2679700Y5499100D03*
G36*
X1002200Y9081599D02*
G01*
X1182199Y9081599D01*
X1182199Y8901600D01*
X1002200Y8901600D01*
G37*
D16*
G01*
X1092200Y9245600D03*
G01*
X1346200Y8991600D03*
G01*
X1346200Y9245600D03*
G01*
X1600200Y8991600D03*
G01*
X1600200Y9245600D03*
G01*
X1854200Y8991600D03*
G01*
X1854200Y9245600D03*
G01*
X2108200Y8991600D03*
G01*
X2108200Y9245600D03*
G01*
X2362200Y8991600D03*
G01*
X2362200Y9245600D03*
G01*
X2616200Y8991600D03*
G01*
X2616200Y9245600D03*
G01*
X2870200Y8991600D03*
G01*
X2870200Y9245600D03*
G01*
X3124200Y8991600D03*
G01*
X3124200Y9245600D03*
G01*
X3378200Y8991600D03*
G01*
X3378200Y9245600D03*
G01*
X3632200Y8991600D03*
G01*
X3632200Y9245600D03*
G01*
X3886200Y8991600D03*
G01*
X3886200Y9245600D03*
G01*
X4140200Y8991600D03*
G01*
X4140200Y9245600D03*
G01*
X4394200Y8991600D03*
G01*
X4394200Y9245600D03*
G01*
X4648200Y8991600D03*
G01*
X4648200Y9245600D03*
G01*
X4902200Y8991600D03*
G01*
X4902200Y9245600D03*
G01*
X5156200Y8991600D03*
G01*
X5156200Y9245600D03*
G01*
X5410200Y8991600D03*
G01*
X5410200Y9245600D03*
G01*
X5664200Y8991600D03*
G01*
X5664200Y9245600D03*
G01*
X5918200Y8991600D03*
G01*
X5918200Y9245600D03*
G36*
X8190400Y9081599D02*
G01*
X8370399Y9081599D01*
X8370399Y8901600D01*
X8190400Y8901600D01*
G37*
G01*
X8280400Y9245600D03*
G01*
X8534400Y8991600D03*
G01*
X8534400Y9245600D03*
G01*
X8788400Y8991600D03*
G01*
X8788400Y9245600D03*
G01*
X9042400Y8991600D03*
G01*
X9042400Y9245600D03*
G01*
X9296400Y8991600D03*
G01*
X9296400Y9245600D03*
G01*
X9550400Y8991600D03*
G01*
X9550400Y9245600D03*
G01*
X9804400Y8991600D03*
G01*
X9804400Y9245600D03*
G01*
X10058400Y8991600D03*
G01*
X10058400Y9245600D03*
G01*
X10312400Y8991600D03*
G01*
X10312400Y9245600D03*
G01*
X10566400Y8991600D03*
G01*
X10566400Y9245600D03*
G01*
X10820400Y8991600D03*
G01*
X10820400Y9245600D03*
G01*
X11074400Y8991600D03*
G01*
X11074400Y9245600D03*
G01*
X11328400Y8991600D03*
G01*
X11328400Y9245600D03*
G01*
X11582400Y8991600D03*
G01*
X11582400Y9245600D03*
G01*
X11836400Y8991600D03*
G01*
X11836400Y9245600D03*
G01*
X12090400Y8991600D03*
G01*
X12090400Y9245600D03*
G01*
X12344400Y8991600D03*
G01*
X12344400Y9245600D03*
G01*
X12598400Y8991600D03*
G01*
X12598400Y9245600D03*
G01*
X12852400Y8991600D03*
G01*
X12852400Y9245600D03*
G01*
X13106400Y8991600D03*
G01*
X13106400Y9245600D03*
D17*
G01*
X1498600Y4813300D03*
G01*
X1498600Y4559300D03*
G01*
X2197100Y4813300D03*
G01*
X2197100Y4559300D03*
G01*
X2895600Y4813300D03*
G01*
X2895600Y4559300D03*
G01*
X3594100Y4813300D03*
G01*
X3594100Y4559300D03*
G01*
X4279900Y4813300D03*
G01*
X4279900Y4559300D03*
G01*
X4953000Y4813300D03*
G01*
X4953000Y4559300D03*
G01*
X5613400Y4813300D03*
G01*
X5613400Y4559300D03*
G01*
X6261100Y4813300D03*
G01*
X6261100Y4559300D03*
G01*
X6261100Y4076700D03*
G01*
X6261100Y3822700D03*
G01*
X5613400Y4076700D03*
G01*
X5613400Y3822700D03*
G01*
X4953000Y4076700D03*
G01*
X4953000Y3822700D03*
G01*
X4279900Y4076700D03*
G01*
X4279900Y3822700D03*
G01*
X3594100Y4076700D03*
G01*
X3594100Y3822700D03*
G01*
X2895600Y4076700D03*
G01*
X2895600Y3822700D03*
G01*
X2197100Y4076700D03*
G01*
X2197100Y3822700D03*
G01*
X1498600Y4076700D03*
G01*
X1498600Y3822700D03*
G01*
X6261100Y3289300D03*
G01*
X6261100Y3035300D03*
G01*
X5613400Y3289300D03*
G01*
X5613400Y3035300D03*
G01*
X4953000Y3289300D03*
G01*
X4953000Y3035300D03*
G01*
X4279900Y3289300D03*
G01*
X4279900Y3035300D03*
G01*
X3594100Y3289300D03*
G01*
X3594100Y3035300D03*
G01*
X2895600Y3289300D03*
G01*
X2895600Y3035300D03*
G01*
X2197100Y3289300D03*
G01*
X2197100Y3035300D03*
G01*
X1498600Y3289300D03*
G01*
X1498600Y3035300D03*
G01*
X12585700Y4813300D03*
G01*
X12585700Y4559300D03*
G01*
X11874500Y4813300D03*
G01*
X11874500Y4559300D03*
G01*
X11150600Y4813300D03*
G01*
X11150600Y4559300D03*
G01*
X10414000Y4813300D03*
G01*
X10414000Y4559300D03*
G01*
X9677400Y4813300D03*
G01*
X9677400Y4559300D03*
G01*
X8915400Y4813300D03*
G01*
X8915400Y4559300D03*
G01*
X8166100Y4813300D03*
G01*
X8166100Y4559300D03*
G01*
X7416800Y4813300D03*
G01*
X7416800Y4559300D03*
G01*
X12585700Y4076700D03*
G01*
X12585700Y3822700D03*
G01*
X11874500Y4076700D03*
G01*
X11874500Y3822700D03*
G01*
X11150600Y4076700D03*
G01*
X11150600Y3822700D03*
G01*
X10414000Y4076700D03*
G01*
X10414000Y3822700D03*
G01*
X9677400Y4076700D03*
G01*
X9677400Y3822700D03*
G01*
X8915400Y4076700D03*
G01*
X8915400Y3822700D03*
G01*
X8166100Y4076700D03*
G01*
X8166100Y3822700D03*
G01*
X7416800Y4076700D03*
G01*
X7416800Y3822700D03*
G01*
X12585700Y3289300D03*
G01*
X12585700Y3035300D03*
G01*
X11874500Y3289300D03*
G01*
X11874500Y3035300D03*
G01*
X11150600Y3289300D03*
G01*
X11150600Y3035300D03*
G01*
X10414000Y3289300D03*
G01*
X10414000Y3035300D03*
G01*
X9677400Y3289300D03*
G01*
X9677400Y3035300D03*
G01*
X8915400Y3289300D03*
G01*
X8915400Y3035300D03*
G01*
X8166100Y3289300D03*
G01*
X8166100Y3035300D03*
G01*
X7404100Y3289300D03*
G01*
X7404100Y3035300D03*
D18*
G01*
X3187700Y2324100D03*
G01*
X2933700Y2324100D03*
G01*
X2679700Y2324100D03*
G01*
X2425700Y2324100D03*
G01*
X2171700Y2324100D03*
G01*
X1917700Y2324100D03*
G01*
X1663700Y2324100D03*
G01*
X1409700Y2324100D03*
G36*
X1075700Y2404099D02*
G01*
X1235699Y2404099D01*
X1235699Y2244100D01*
X1075700Y2244100D01*
G37*
G01*
X3441700Y2324100D03*
G01*
X3187700Y1612900D03*
G01*
X2933700Y1612900D03*
G01*
X2679700Y1612900D03*
G01*
X2425700Y1612900D03*
G01*
X2171700Y1612900D03*
G01*
X1917700Y1612900D03*
G01*
X1663700Y1612900D03*
G01*
X1409700Y1612900D03*
G36*
X1075700Y1692899D02*
G01*
X1235699Y1692899D01*
X1235699Y1532900D01*
X1075700Y1532900D01*
G37*
G01*
X3441700Y1612900D03*
G01*
X7797800Y2324100D03*
G01*
X7543800Y2324100D03*
G01*
X7289800Y2324100D03*
G01*
X7035800Y2324100D03*
G01*
X6781800Y2324100D03*
G01*
X6527800Y2324100D03*
G01*
X6273800Y2324100D03*
G01*
X6019800Y2324100D03*
G36*
X5685800Y2404099D02*
G01*
X5845799Y2404099D01*
X5845799Y2244100D01*
X5685800Y2244100D01*
G37*
G01*
X8051800Y2324100D03*
G01*
X7797800Y1638300D03*
G01*
X7543800Y1638300D03*
G01*
X7289800Y1638300D03*
G01*
X7035800Y1638300D03*
G01*
X6781800Y1638300D03*
G01*
X6527800Y1638300D03*
G01*
X6273800Y1638300D03*
G01*
X6019800Y1638300D03*
G36*
X5685800Y1718299D02*
G01*
X5845799Y1718299D01*
X5845799Y1558300D01*
X5685800Y1558300D01*
G37*
G01*
X8051800Y1638300D03*
G01*
X12509500Y2324100D03*
G01*
X12255500Y2324100D03*
G01*
X12001500Y2324100D03*
G01*
X11747500Y2324100D03*
G01*
X11493500Y2324100D03*
G01*
X11239500Y2324100D03*
G01*
X10985500Y2324100D03*
G01*
X10731500Y2324100D03*
G36*
X10397500Y2404099D02*
G01*
X10557499Y2404099D01*
X10557499Y2244100D01*
X10397500Y2244100D01*
G37*
G01*
X12763500Y2324100D03*
G01*
X12509500Y1638300D03*
G01*
X12255500Y1638300D03*
G01*
X12001500Y1638300D03*
G01*
X11747500Y1638300D03*
G01*
X11493500Y1638300D03*
G01*
X11239500Y1638300D03*
G01*
X10985500Y1638300D03*
G01*
X10731500Y1638300D03*
G36*
X10397500Y1718299D02*
G01*
X10557499Y1718299D01*
X10557499Y1558300D01*
X10397500Y1558300D01*
G37*
G01*
X12763500Y1638300D03*
D12*
G01*
X8802370Y3155950D03*
G01*
X9169400Y2755900D03*
G01*
X6692391Y3405886D03*
G01*
X7212584Y2903220D03*
G01*
X5132831Y2501137D03*
G01*
X5348731Y4689347D03*
G01*
X6242304Y8599678D03*
G01*
X2266188Y6078981D03*
G01*
X2432811Y6242304D03*
G01*
X2533395Y6173470D03*
G01*
X3332988Y6662420D03*
G01*
X4584700Y7869936D03*
G01*
X4711191Y7501381D03*
G01*
X4527804Y8823452D03*
G01*
X3850640Y7236968D03*
G01*
X4216654Y7001002D03*
G01*
X3496056Y6882892D03*
G01*
X4238752Y5641847D03*
G01*
X3926331Y4613402D03*
G01*
X3709415Y4393184D03*
G01*
X3308858Y4175252D03*
G01*
X12292329Y6771639D03*
G01*
X10885170Y8799068D03*
G01*
X10085577Y7645654D03*
G01*
X12007595Y8838945D03*
G01*
X10172445Y7786623D03*
G01*
X12820395Y7218934D03*
G01*
X7701788Y2961386D03*
G01*
X8643874Y3513073D03*
G01*
X9440163Y4489957D03*
G01*
X10243820Y7498334D03*
G01*
X10930890Y3244850D03*
G01*
X11397995Y3411981D03*
G01*
X12103608Y6834378D03*
G01*
X11610593Y3177286D03*
G01*
X9974325Y4749037D03*
G01*
X10387329Y7404608D03*
G01*
X10494772Y8794495D03*
G01*
X8753602Y5514847D03*
G01*
X10722102Y9386062D03*
G01*
X11165331Y8747760D03*
G01*
X10640059Y8701786D03*
G01*
X8776461Y5402579D03*
G01*
X9942068Y5193029D03*
G01*
X11206988Y8840724D03*
G01*
X10351261Y6395465D03*
G01*
X9398000Y4420615D03*
G01*
X9417304Y8804147D03*
G01*
X12248895Y6377939D03*
G01*
X11768581Y5844539D03*
G01*
X11593068Y6439662D03*
G01*
X11099038Y5895847D03*
G01*
X8762491Y5154929D03*
G01*
X8747759Y7160260D03*
G01*
X4723384Y8719312D03*
G01*
X4191000Y8759444D03*
G01*
X2057400Y3175000D03*
G01*
X5941568Y6865112D03*
G01*
X2084577Y8693404D03*
G01*
X2859531Y8822436D03*
G01*
X1817115Y4768595D03*
G01*
X11376659Y6509257D03*
G01*
X6323584Y7861554D03*
G01*
X4652263Y6694423D03*
G01*
X6280404Y6718808D03*
G01*
X5938265Y6433565D03*
G01*
X5690615Y6146800D03*
G01*
X1926336Y4874260D03*
D13*
G01*
X10287000Y2057400D03*
G01*
X10579100Y2057400D03*
G01*
X9918700Y2870200D03*
G01*
X10960100Y2844800D03*
G01*
X11290300Y3340100D03*
G01*
X11252200Y3200400D03*
D18*
X1739900Y7734300D02*
G01*
X1739900Y7734300D01*
X1993900Y7734300D02*
G01*
X1993900Y7734300D01*
X2247900Y7734300D02*
G01*
X2247900Y7734300D01*
X2501900Y7734300D02*
G01*
X2501900Y7734300D01*
X2755900Y7734300D02*
G01*
X2755900Y7734300D01*
X3009900Y7734300D02*
G01*
X3009900Y7734300D01*
X3263900Y7734300D02*
G01*
X3263900Y7734300D01*
X3263900Y6972300D02*
G01*
X3263900Y6972300D01*
X1485900Y7734300D02*
G01*
X1485900Y7734300D01*
X1231900Y7734300D02*
G01*
X1231900Y7734300D01*
X3009900Y6972300D02*
G01*
X3009900Y6972300D01*
X2755900Y6972300D02*
G01*
X2755900Y6972300D01*
X2501900Y6972300D02*
G01*
X2501900Y6972300D01*
X2247900Y6972300D02*
G01*
X2247900Y6972300D01*
X1993900Y6972300D02*
G01*
X1993900Y6972300D01*
X1739900Y6972300D02*
G01*
X1739900Y6972300D01*
X1485900Y6972300D02*
G01*
X1485900Y6972300D01*
X5003800Y7734300D02*
G01*
X5003800Y7734300D01*
X5257800Y7734300D02*
G01*
X5257800Y7734300D01*
X5511800Y7734300D02*
G01*
X5511800Y7734300D01*
X5765800Y7734300D02*
G01*
X5765800Y7734300D01*
X6019800Y7734300D02*
G01*
X6019800Y7734300D01*
X6273800Y7734300D02*
G01*
X6273800Y7734300D01*
X6527800Y7734300D02*
G01*
X6527800Y7734300D01*
X6527800Y6972300D02*
G01*
X6527800Y6972300D01*
X4749800Y7734300D02*
G01*
X4749800Y7734300D01*
X4495800Y7734300D02*
G01*
X4495800Y7734300D01*
X6273800Y6972300D02*
G01*
X6273800Y6972300D01*
X6019800Y6972300D02*
G01*
X6019800Y6972300D01*
X5765800Y6972300D02*
G01*
X5765800Y6972300D01*
X5511800Y6972300D02*
G01*
X5511800Y6972300D01*
X5257800Y6972300D02*
G01*
X5257800Y6972300D01*
X5003800Y6972300D02*
G01*
X5003800Y6972300D01*
X4749800Y6972300D02*
G01*
X4749800Y6972300D01*
X7797800Y7734300D02*
G01*
X7797800Y7734300D01*
X8051800Y7734300D02*
G01*
X8051800Y7734300D01*
X8305800Y7734300D02*
G01*
X8305800Y7734300D01*
X8559800Y7734300D02*
G01*
X8559800Y7734300D01*
X8813800Y7734300D02*
G01*
X8813800Y7734300D01*
X9067800Y7734300D02*
G01*
X9067800Y7734300D01*
X9321800Y7734300D02*
G01*
X9321800Y7734300D01*
X9321800Y6972300D02*
G01*
X9321800Y6972300D01*
X7543800Y7734300D02*
G01*
X7543800Y7734300D01*
X7289800Y7734300D02*
G01*
X7289800Y7734300D01*
X9067800Y6972300D02*
G01*
X9067800Y6972300D01*
X8813800Y6972300D02*
G01*
X8813800Y6972300D01*
X8559800Y6972300D02*
G01*
X8559800Y6972300D01*
X8305800Y6972300D02*
G01*
X8305800Y6972300D01*
X8051800Y6972300D02*
G01*
X8051800Y6972300D01*
X7797800Y6972300D02*
G01*
X7797800Y6972300D01*
X7543800Y6972300D02*
G01*
X7543800Y6972300D01*
X9652000Y6273800D02*
G01*
X9652000Y6273800D01*
X9906000Y6273800D02*
G01*
X9906000Y6273800D01*
X10160000Y6273800D02*
G01*
X10160000Y6273800D01*
X10414000Y6273800D02*
G01*
X10414000Y6273800D01*
X10668000Y6273800D02*
G01*
X10668000Y6273800D01*
X10922000Y6273800D02*
G01*
X10922000Y6273800D01*
X11176000Y6273800D02*
G01*
X11176000Y6273800D01*
X11176000Y5511800D02*
G01*
X11176000Y5511800D01*
X9398000Y6273800D02*
G01*
X9398000Y6273800D01*
X9144000Y6273800D02*
G01*
X9144000Y6273800D01*
X10922000Y5511800D02*
G01*
X10922000Y5511800D01*
X10668000Y5511800D02*
G01*
X10668000Y5511800D01*
X10414000Y5511800D02*
G01*
X10414000Y5511800D01*
X10160000Y5511800D02*
G01*
X10160000Y5511800D01*
X9906000Y5511800D02*
G01*
X9906000Y5511800D01*
X9652000Y5511800D02*
G01*
X9652000Y5511800D01*
X9398000Y5511800D02*
G01*
X9398000Y5511800D01*
X11303000Y7734300D02*
G01*
X11303000Y7734300D01*
X11557000Y7734300D02*
G01*
X11557000Y7734300D01*
X11811000Y7734300D02*
G01*
X11811000Y7734300D01*
X12065000Y7734300D02*
G01*
X12065000Y7734300D01*
X12319000Y7734300D02*
G01*
X12319000Y7734300D01*
X12573000Y7734300D02*
G01*
X12573000Y7734300D01*
X12827000Y7734300D02*
G01*
X12827000Y7734300D01*
X12827000Y6972300D02*
G01*
X12827000Y6972300D01*
X11049000Y7734300D02*
G01*
X11049000Y7734300D01*
X10795000Y7734300D02*
G01*
X10795000Y7734300D01*
X12573000Y6972300D02*
G01*
X12573000Y6972300D01*
X12319000Y6972300D02*
G01*
X12319000Y6972300D01*
X12065000Y6972300D02*
G01*
X12065000Y6972300D01*
X11811000Y6972300D02*
G01*
X11811000Y6972300D01*
X11557000Y6972300D02*
G01*
X11557000Y6972300D01*
X11303000Y6972300D02*
G01*
X11303000Y6972300D01*
X11049000Y6972300D02*
G01*
X11049000Y6972300D01*
X3187700Y6261100D02*
G01*
X3187700Y6261100D01*
X3441700Y6261100D02*
G01*
X3441700Y6261100D01*
X3695700Y6261100D02*
G01*
X3695700Y6261100D01*
X3949700Y6261100D02*
G01*
X3949700Y6261100D01*
X4203700Y6261100D02*
G01*
X4203700Y6261100D01*
X4457700Y6261100D02*
G01*
X4457700Y6261100D01*
X4711700Y6261100D02*
G01*
X4711700Y6261100D01*
X4711700Y5499100D02*
G01*
X4711700Y5499100D01*
X2933700Y6261100D02*
G01*
X2933700Y6261100D01*
X2679700Y6261100D02*
G01*
X2679700Y6261100D01*
X4457700Y5499100D02*
G01*
X4457700Y5499100D01*
X4203700Y5499100D02*
G01*
X4203700Y5499100D01*
X3949700Y5499100D02*
G01*
X3949700Y5499100D01*
X3695700Y5499100D02*
G01*
X3695700Y5499100D01*
X3441700Y5499100D02*
G01*
X3441700Y5499100D01*
X3187700Y5499100D02*
G01*
X3187700Y5499100D01*
X2933700Y5499100D02*
G01*
X2933700Y5499100D01*
M02*
