G04 Layer: TopSolderMaskLayer*
G04 EasyEDA v6.4.19.4, 2021-04-30T18:59:06+02:00*
G04 9f706370d961430f8c96474a389d8511,2e57c490b2cc43cca34809fe9e8c30bf,10*
G04 Gerber Generator version 0.2*
G04 Scale: 100 percent, Rotated: No, Reflected: No *
G04 Dimensions in millimeters *
G04 leading zeros omitted , absolute positions ,4 integer and 5 decimal *
%FSLAX45Y45*%
%MOMM*%

%ADD22C,1.7016*%
%ADD23R,1.7016X1.7016*%
%ADD25C,1.9016*%
%ADD26C,1.7526*%

%LPD*%
D22*
X1739900Y7734300D02*
G01*
X1739900Y7734300D01*
X1993900Y7734300D02*
G01*
X1993900Y7734300D01*
X2247900Y7734300D02*
G01*
X2247900Y7734300D01*
X2501900Y7734300D02*
G01*
X2501900Y7734300D01*
X2755900Y7734300D02*
G01*
X2755900Y7734300D01*
X3009900Y7734300D02*
G01*
X3009900Y7734300D01*
X3263900Y7734300D02*
G01*
X3263900Y7734300D01*
X3263900Y6972300D02*
G01*
X3263900Y6972300D01*
X1485900Y7734300D02*
G01*
X1485900Y7734300D01*
X1231900Y7734300D02*
G01*
X1231900Y7734300D01*
X3009900Y6972300D02*
G01*
X3009900Y6972300D01*
X2755900Y6972300D02*
G01*
X2755900Y6972300D01*
X2501900Y6972300D02*
G01*
X2501900Y6972300D01*
X2247900Y6972300D02*
G01*
X2247900Y6972300D01*
X1993900Y6972300D02*
G01*
X1993900Y6972300D01*
X1739900Y6972300D02*
G01*
X1739900Y6972300D01*
X1485900Y6972300D02*
G01*
X1485900Y6972300D01*
X5003800Y7734300D02*
G01*
X5003800Y7734300D01*
X5257800Y7734300D02*
G01*
X5257800Y7734300D01*
X5511800Y7734300D02*
G01*
X5511800Y7734300D01*
X5765800Y7734300D02*
G01*
X5765800Y7734300D01*
X6019800Y7734300D02*
G01*
X6019800Y7734300D01*
X6273800Y7734300D02*
G01*
X6273800Y7734300D01*
X6527800Y7734300D02*
G01*
X6527800Y7734300D01*
X6527800Y6972300D02*
G01*
X6527800Y6972300D01*
X4749800Y7734300D02*
G01*
X4749800Y7734300D01*
X4495800Y7734300D02*
G01*
X4495800Y7734300D01*
X6273800Y6972300D02*
G01*
X6273800Y6972300D01*
X6019800Y6972300D02*
G01*
X6019800Y6972300D01*
X5765800Y6972300D02*
G01*
X5765800Y6972300D01*
X5511800Y6972300D02*
G01*
X5511800Y6972300D01*
X5257800Y6972300D02*
G01*
X5257800Y6972300D01*
X5003800Y6972300D02*
G01*
X5003800Y6972300D01*
X4749800Y6972300D02*
G01*
X4749800Y6972300D01*
X7797800Y7734300D02*
G01*
X7797800Y7734300D01*
X8051800Y7734300D02*
G01*
X8051800Y7734300D01*
X8305800Y7734300D02*
G01*
X8305800Y7734300D01*
X8559800Y7734300D02*
G01*
X8559800Y7734300D01*
X8813800Y7734300D02*
G01*
X8813800Y7734300D01*
X9067800Y7734300D02*
G01*
X9067800Y7734300D01*
X9321800Y7734300D02*
G01*
X9321800Y7734300D01*
X9321800Y6972300D02*
G01*
X9321800Y6972300D01*
X7543800Y7734300D02*
G01*
X7543800Y7734300D01*
X7289800Y7734300D02*
G01*
X7289800Y7734300D01*
X9067800Y6972300D02*
G01*
X9067800Y6972300D01*
X8813800Y6972300D02*
G01*
X8813800Y6972300D01*
X8559800Y6972300D02*
G01*
X8559800Y6972300D01*
X8305800Y6972300D02*
G01*
X8305800Y6972300D01*
X8051800Y6972300D02*
G01*
X8051800Y6972300D01*
X7797800Y6972300D02*
G01*
X7797800Y6972300D01*
X7543800Y6972300D02*
G01*
X7543800Y6972300D01*
X9652000Y6273800D02*
G01*
X9652000Y6273800D01*
X9906000Y6273800D02*
G01*
X9906000Y6273800D01*
X10160000Y6273800D02*
G01*
X10160000Y6273800D01*
X10414000Y6273800D02*
G01*
X10414000Y6273800D01*
X10668000Y6273800D02*
G01*
X10668000Y6273800D01*
X10922000Y6273800D02*
G01*
X10922000Y6273800D01*
X11176000Y6273800D02*
G01*
X11176000Y6273800D01*
X11176000Y5511800D02*
G01*
X11176000Y5511800D01*
X9398000Y6273800D02*
G01*
X9398000Y6273800D01*
X9144000Y6273800D02*
G01*
X9144000Y6273800D01*
X10922000Y5511800D02*
G01*
X10922000Y5511800D01*
X10668000Y5511800D02*
G01*
X10668000Y5511800D01*
X10414000Y5511800D02*
G01*
X10414000Y5511800D01*
X10160000Y5511800D02*
G01*
X10160000Y5511800D01*
X9906000Y5511800D02*
G01*
X9906000Y5511800D01*
X9652000Y5511800D02*
G01*
X9652000Y5511800D01*
X9398000Y5511800D02*
G01*
X9398000Y5511800D01*
X11303000Y7734300D02*
G01*
X11303000Y7734300D01*
X11557000Y7734300D02*
G01*
X11557000Y7734300D01*
X11811000Y7734300D02*
G01*
X11811000Y7734300D01*
X12065000Y7734300D02*
G01*
X12065000Y7734300D01*
X12319000Y7734300D02*
G01*
X12319000Y7734300D01*
X12573000Y7734300D02*
G01*
X12573000Y7734300D01*
X12827000Y7734300D02*
G01*
X12827000Y7734300D01*
X12827000Y6972300D02*
G01*
X12827000Y6972300D01*
X11049000Y7734300D02*
G01*
X11049000Y7734300D01*
X10795000Y7734300D02*
G01*
X10795000Y7734300D01*
X12573000Y6972300D02*
G01*
X12573000Y6972300D01*
X12319000Y6972300D02*
G01*
X12319000Y6972300D01*
X12065000Y6972300D02*
G01*
X12065000Y6972300D01*
X11811000Y6972300D02*
G01*
X11811000Y6972300D01*
X11557000Y6972300D02*
G01*
X11557000Y6972300D01*
X11303000Y6972300D02*
G01*
X11303000Y6972300D01*
X11049000Y6972300D02*
G01*
X11049000Y6972300D01*
X3187700Y6261100D02*
G01*
X3187700Y6261100D01*
X3441700Y6261100D02*
G01*
X3441700Y6261100D01*
X3695700Y6261100D02*
G01*
X3695700Y6261100D01*
X3949700Y6261100D02*
G01*
X3949700Y6261100D01*
X4203700Y6261100D02*
G01*
X4203700Y6261100D01*
X4457700Y6261100D02*
G01*
X4457700Y6261100D01*
X4711700Y6261100D02*
G01*
X4711700Y6261100D01*
X4711700Y5499100D02*
G01*
X4711700Y5499100D01*
X2933700Y6261100D02*
G01*
X2933700Y6261100D01*
X2679700Y6261100D02*
G01*
X2679700Y6261100D01*
X4457700Y5499100D02*
G01*
X4457700Y5499100D01*
X4203700Y5499100D02*
G01*
X4203700Y5499100D01*
X3949700Y5499100D02*
G01*
X3949700Y5499100D01*
X3695700Y5499100D02*
G01*
X3695700Y5499100D01*
X3441700Y5499100D02*
G01*
X3441700Y5499100D01*
X3187700Y5499100D02*
G01*
X3187700Y5499100D01*
X2933700Y5499100D02*
G01*
X2933700Y5499100D01*
D23*
G01*
X1231900Y6972300D03*
G01*
X4495800Y6972300D03*
G01*
X7289800Y6972300D03*
G01*
X9144000Y5511800D03*
G01*
X10795000Y6972300D03*
G01*
X2679700Y5499100D03*
G36*
X997204Y8896604D02*
G01*
X997204Y9086595D01*
X1187195Y9086595D01*
X1187195Y8896604D01*
G37*
D25*
G01*
X1092200Y9245600D03*
G01*
X1346200Y8991600D03*
G01*
X1346200Y9245600D03*
G01*
X1600200Y8991600D03*
G01*
X1600200Y9245600D03*
G01*
X1854200Y8991600D03*
G01*
X1854200Y9245600D03*
G01*
X2108200Y8991600D03*
G01*
X2108200Y9245600D03*
G01*
X2362200Y8991600D03*
G01*
X2362200Y9245600D03*
G01*
X2616200Y8991600D03*
G01*
X2616200Y9245600D03*
G01*
X2870200Y8991600D03*
G01*
X2870200Y9245600D03*
G01*
X3124200Y8991600D03*
G01*
X3124200Y9245600D03*
G01*
X3378200Y8991600D03*
G01*
X3378200Y9245600D03*
G01*
X3632200Y8991600D03*
G01*
X3632200Y9245600D03*
G01*
X3886200Y8991600D03*
G01*
X3886200Y9245600D03*
G01*
X4140200Y8991600D03*
G01*
X4140200Y9245600D03*
G01*
X4394200Y8991600D03*
G01*
X4394200Y9245600D03*
G01*
X4648200Y8991600D03*
G01*
X4648200Y9245600D03*
G01*
X4902200Y8991600D03*
G01*
X4902200Y9245600D03*
G01*
X5156200Y8991600D03*
G01*
X5156200Y9245600D03*
G01*
X5410200Y8991600D03*
G01*
X5410200Y9245600D03*
G01*
X5664200Y8991600D03*
G01*
X5664200Y9245600D03*
G01*
X5918200Y8991600D03*
G01*
X5918200Y9245600D03*
G36*
X8185404Y8896604D02*
G01*
X8185404Y9086595D01*
X8375395Y9086595D01*
X8375395Y8896604D01*
G37*
G01*
X8280400Y9245600D03*
G01*
X8534400Y8991600D03*
G01*
X8534400Y9245600D03*
G01*
X8788400Y8991600D03*
G01*
X8788400Y9245600D03*
G01*
X9042400Y8991600D03*
G01*
X9042400Y9245600D03*
G01*
X9296400Y8991600D03*
G01*
X9296400Y9245600D03*
G01*
X9550400Y8991600D03*
G01*
X9550400Y9245600D03*
G01*
X9804400Y8991600D03*
G01*
X9804400Y9245600D03*
G01*
X10058400Y8991600D03*
G01*
X10058400Y9245600D03*
G01*
X10312400Y8991600D03*
G01*
X10312400Y9245600D03*
G01*
X10566400Y8991600D03*
G01*
X10566400Y9245600D03*
G01*
X10820400Y8991600D03*
G01*
X10820400Y9245600D03*
G01*
X11074400Y8991600D03*
G01*
X11074400Y9245600D03*
G01*
X11328400Y8991600D03*
G01*
X11328400Y9245600D03*
G01*
X11582400Y8991600D03*
G01*
X11582400Y9245600D03*
G01*
X11836400Y8991600D03*
G01*
X11836400Y9245600D03*
G01*
X12090400Y8991600D03*
G01*
X12090400Y9245600D03*
G01*
X12344400Y8991600D03*
G01*
X12344400Y9245600D03*
G01*
X12598400Y8991600D03*
G01*
X12598400Y9245600D03*
G01*
X12852400Y8991600D03*
G01*
X12852400Y9245600D03*
G01*
X13106400Y8991600D03*
G01*
X13106400Y9245600D03*
D26*
G01*
X1498600Y4813300D03*
G01*
X1498600Y4559300D03*
G01*
X2197100Y4813300D03*
G01*
X2197100Y4559300D03*
G01*
X2895600Y4813300D03*
G01*
X2895600Y4559300D03*
G01*
X3594100Y4813300D03*
G01*
X3594100Y4559300D03*
G01*
X4279900Y4813300D03*
G01*
X4279900Y4559300D03*
G01*
X4953000Y4813300D03*
G01*
X4953000Y4559300D03*
G01*
X5613400Y4813300D03*
G01*
X5613400Y4559300D03*
G01*
X6261100Y4813300D03*
G01*
X6261100Y4559300D03*
G01*
X6261100Y4076700D03*
G01*
X6261100Y3822700D03*
G01*
X5613400Y4076700D03*
G01*
X5613400Y3822700D03*
G01*
X4953000Y4076700D03*
G01*
X4953000Y3822700D03*
G01*
X4279900Y4076700D03*
G01*
X4279900Y3822700D03*
G01*
X3594100Y4076700D03*
G01*
X3594100Y3822700D03*
G01*
X2895600Y4076700D03*
G01*
X2895600Y3822700D03*
G01*
X2197100Y4076700D03*
G01*
X2197100Y3822700D03*
G01*
X1498600Y4076700D03*
G01*
X1498600Y3822700D03*
G01*
X6261100Y3289300D03*
G01*
X6261100Y3035300D03*
G01*
X5613400Y3289300D03*
G01*
X5613400Y3035300D03*
G01*
X4953000Y3289300D03*
G01*
X4953000Y3035300D03*
G01*
X4279900Y3289300D03*
G01*
X4279900Y3035300D03*
G01*
X3594100Y3289300D03*
G01*
X3594100Y3035300D03*
G01*
X2895600Y3289300D03*
G01*
X2895600Y3035300D03*
G01*
X2197100Y3289300D03*
G01*
X2197100Y3035300D03*
G01*
X1498600Y3289300D03*
G01*
X1498600Y3035300D03*
G01*
X12585700Y4813300D03*
G01*
X12585700Y4559300D03*
G01*
X11874500Y4813300D03*
G01*
X11874500Y4559300D03*
G01*
X11150600Y4813300D03*
G01*
X11150600Y4559300D03*
G01*
X10414000Y4813300D03*
G01*
X10414000Y4559300D03*
G01*
X9677400Y4813300D03*
G01*
X9677400Y4559300D03*
G01*
X8915400Y4813300D03*
G01*
X8915400Y4559300D03*
G01*
X8166100Y4813300D03*
G01*
X8166100Y4559300D03*
G01*
X7416800Y4813300D03*
G01*
X7416800Y4559300D03*
G01*
X12585700Y4076700D03*
G01*
X12585700Y3822700D03*
G01*
X11874500Y4076700D03*
G01*
X11874500Y3822700D03*
G01*
X11150600Y4076700D03*
G01*
X11150600Y3822700D03*
G01*
X10414000Y4076700D03*
G01*
X10414000Y3822700D03*
G01*
X9677400Y4076700D03*
G01*
X9677400Y3822700D03*
G01*
X8915400Y4076700D03*
G01*
X8915400Y3822700D03*
G01*
X8166100Y4076700D03*
G01*
X8166100Y3822700D03*
G01*
X7416800Y4076700D03*
G01*
X7416800Y3822700D03*
G01*
X12585700Y3289300D03*
G01*
X12585700Y3035300D03*
G01*
X11874500Y3289300D03*
G01*
X11874500Y3035300D03*
G01*
X11150600Y3289300D03*
G01*
X11150600Y3035300D03*
G01*
X10414000Y3289300D03*
G01*
X10414000Y3035300D03*
G01*
X9677400Y3289300D03*
G01*
X9677400Y3035300D03*
G01*
X8915400Y3289300D03*
G01*
X8915400Y3035300D03*
G01*
X8166100Y3289300D03*
G01*
X8166100Y3035300D03*
G01*
X7404100Y3289300D03*
G01*
X7404100Y3035300D03*
D22*
G01*
X3187700Y2324100D03*
G01*
X2933700Y2324100D03*
G01*
X2679700Y2324100D03*
G01*
X2425700Y2324100D03*
G01*
X2171700Y2324100D03*
G01*
X1917700Y2324100D03*
G01*
X1663700Y2324100D03*
G01*
X1409700Y2324100D03*
G36*
X1070610Y2239010D02*
G01*
X1070610Y2409189D01*
X1240789Y2409189D01*
X1240789Y2239010D01*
G37*
G01*
X3441700Y2324100D03*
G01*
X3187700Y1612900D03*
G01*
X2933700Y1612900D03*
G01*
X2679700Y1612900D03*
G01*
X2425700Y1612900D03*
G01*
X2171700Y1612900D03*
G01*
X1917700Y1612900D03*
G01*
X1663700Y1612900D03*
G01*
X1409700Y1612900D03*
G36*
X1070610Y1527810D02*
G01*
X1070610Y1697989D01*
X1240789Y1697989D01*
X1240789Y1527810D01*
G37*
G01*
X3441700Y1612900D03*
G01*
X7797800Y2324100D03*
G01*
X7543800Y2324100D03*
G01*
X7289800Y2324100D03*
G01*
X7035800Y2324100D03*
G01*
X6781800Y2324100D03*
G01*
X6527800Y2324100D03*
G01*
X6273800Y2324100D03*
G01*
X6019800Y2324100D03*
G36*
X5680709Y2239010D02*
G01*
X5680709Y2409189D01*
X5850890Y2409189D01*
X5850890Y2239010D01*
G37*
G01*
X8051800Y2324100D03*
G01*
X7797800Y1638300D03*
G01*
X7543800Y1638300D03*
G01*
X7289800Y1638300D03*
G01*
X7035800Y1638300D03*
G01*
X6781800Y1638300D03*
G01*
X6527800Y1638300D03*
G01*
X6273800Y1638300D03*
G01*
X6019800Y1638300D03*
G36*
X5680709Y1553210D02*
G01*
X5680709Y1723389D01*
X5850890Y1723389D01*
X5850890Y1553210D01*
G37*
G01*
X8051800Y1638300D03*
G01*
X12509500Y2324100D03*
G01*
X12255500Y2324100D03*
G01*
X12001500Y2324100D03*
G01*
X11747500Y2324100D03*
G01*
X11493500Y2324100D03*
G01*
X11239500Y2324100D03*
G01*
X10985500Y2324100D03*
G01*
X10731500Y2324100D03*
G36*
X10392409Y2239010D02*
G01*
X10392409Y2409189D01*
X10562590Y2409189D01*
X10562590Y2239010D01*
G37*
G01*
X12763500Y2324100D03*
G01*
X12509500Y1638300D03*
G01*
X12255500Y1638300D03*
G01*
X12001500Y1638300D03*
G01*
X11747500Y1638300D03*
G01*
X11493500Y1638300D03*
G01*
X11239500Y1638300D03*
G01*
X10985500Y1638300D03*
G01*
X10731500Y1638300D03*
G36*
X10392409Y1553210D02*
G01*
X10392409Y1723389D01*
X10562590Y1723389D01*
X10562590Y1553210D01*
G37*
G01*
X12763500Y1638300D03*
M02*
